<svg width="58" height="50" viewBox="0 0 58 50" fill="none" xmlns="http://www.w3.org/2000/svg">
<path d="M11 47.0003H6.92667C5.35482 47.0003 3.84735 46.3759 2.73588 45.2644C1.62441 44.153 1 42.6455 1 41.0737V37.0003C1 36.1163 1.35119 35.2684 1.97631 34.6433C2.60143 34.0182 3.44928 33.667 4.33333 33.667C5.21739 33.667 6.06523 34.0182 6.69036 34.6433C7.31548 35.2684 7.66667 36.1163 7.66667 37.0003V39.0003C7.66667 39.3539 7.80714 39.6931 8.05719 39.9431C8.30724 40.1932 8.64638 40.3337 9 40.3337H26.3333C26.687 40.3337 27.0261 40.1932 27.2761 39.9431C27.5262 39.6931 27.6667 39.3539 27.6667 39.0003V37.0003C27.6667 36.1163 28.0179 35.2684 28.643 34.6433C29.2681 34.0182 30.1159 33.667 31 33.667C31.8841 33.667 32.7319 34.0182 33.357 34.6433C33.9821 35.2684 34.3333 36.1163 34.3333 37.0003V41.0737C34.3333 42.6455 33.7089 44.153 32.5975 45.2644C31.486 46.3759 29.9785 47.0003 28.4067 47.0003H17.6667" stroke="#00FF00" stroke-width="1.5" stroke-linecap="round"/>
<path d="M22.6667 25.3335C24.2167 25.3335 24.99 25.3335 25.6334 25.4618C26.9267 25.719 28.1147 26.354 29.0471 27.2864C29.9795 28.2188 30.6145 29.4068 30.8717 30.7002C31 31.3435 31 32.1168 31 33.6668M4.33337 33.6668C4.33337 32.1168 4.33337 31.3435 4.46171 30.7002C4.7189 29.4068 5.35387 28.2188 6.28629 27.2864C7.21872 26.354 8.40672 25.719 9.70004 25.4618C10.3434 25.3335 11.1167 25.3335 12.6667 25.3335H16M31 48.6668V47.0002M4.33337 48.6668V47.0002" stroke="#397C09" stroke-width="1.5" stroke-linecap="round"/>
<path d="M25.1666 1H10.1666C9.7688 1 9.38727 1.15804 9.10597 1.43934C8.82466 1.72064 8.66663 2.10218 8.66663 2.5V17.5C8.66663 17.8978 8.82466 18.2794 9.10597 18.5607C9.38727 18.842 9.7688 19 10.1666 19H25.1666C25.5645 19 25.946 18.842 26.2273 18.5607C26.5086 18.2794 26.6666 17.8978 26.6666 17.5V2.5C26.6666 2.10218 26.5086 1.72064 26.2273 1.43934C25.946 1.15804 25.5645 1 25.1666 1Z" stroke="#00FF00" stroke-width="2" stroke-linecap="round" stroke-linejoin="round"/>
<path d="M14.6666 9.5C15.3297 9.5 15.9656 9.23661 16.4344 8.76777C16.9032 8.29893 17.1666 7.66304 17.1666 7C17.1666 6.33696 16.9032 5.70107 16.4344 5.23223C15.9656 4.76339 15.3297 4.5 14.6666 4.5C14.0036 4.5 13.3677 4.76339 12.8989 5.23223C12.43 5.70107 12.1666 6.33696 12.1666 7C12.1666 7.66304 12.43 8.29893 12.8989 8.76777C13.3677 9.23661 14.0036 9.5 14.6666 9.5ZM19.5616 11.11C19.6564 10.9831 19.7799 10.8806 19.922 10.8108C20.0642 10.741 20.2208 10.706 20.3792 10.7085C20.5375 10.7111 20.6929 10.7513 20.8327 10.8257C20.9725 10.9001 21.0926 11.0066 21.1831 11.1365L25.5706 17.428C26.0326 18.091 25.5581 19 24.7506 19H13.6666L19.5616 11.11Z" stroke="#00FF00" stroke-width="2" stroke-linecap="round" stroke-linejoin="round"/>
<path d="M42.75 49H47.5M47.5 49H52.25M47.5 49V19.2857M47.5 19.2857V10.1429M47.5 19.2857H38L42.75 1H52.25L57 19.2857H47.5Z" stroke="#00FF00" stroke-width="1.5" stroke-linecap="round" stroke-linejoin="round"/>
</svg>
