<svg width="51" height="51" viewBox="0 0 51 51" fill="none" xmlns="http://www.w3.org/2000/svg">
<path d="M46.5531 46.7779H4.33282M29.665 19.3347H21.2209M29.665 32.0008H21.2209M13.8345 17.2237H13.8155M13.8366 25.6678H13.8155M13.8366 34.1118H13.8155M37.0556 17.2237H37.0366M37.0577 25.6678H37.0366M37.0577 34.1118H37.0366M44.4421 16.1365C44.4421 13.8186 44.4421 12.6618 43.8594 11.6823C43.2768 10.7028 42.2023 10.0653 40.0554 8.77965L37.3237 7.14573C33.9524 5.1276 32.2657 4.11853 30.9654 4.74339C29.665 5.36825 29.665 7.18584 29.665 10.821V46.7779H44.4421V16.1365ZM6.44384 16.1365C6.44384 13.8186 6.44384 12.6618 7.02648 11.6823C7.60912 10.7028 8.68362 10.0653 10.8305 8.77965L13.5622 7.14573C16.9356 5.12549 18.6202 4.11431 19.9205 4.74128C21.2209 5.36825 21.2209 7.18584 21.2209 10.821V46.7779H6.44384V16.1365Z" stroke="white" stroke-width="1.5" stroke-linecap="round" stroke-linejoin="round"/>
</svg>
