<svg xmlns="http://www.w3.org/2000/svg" xmlns:xlink="http://www.w3.org/1999/xlink" width="2000" zoomAndPan="magnify" viewBox="0 0 1500 1499.999933" height="2000" preserveAspectRatio="xMidYMid meet" version="1.0"><defs><g/><clipPath id="503a4263f1"><rect x="0" width="509" y="0" height="175"/></clipPath></defs><path fill="#fff3ec" d="M 911.457031 533.671875 C 921.039062 534.527344 930.761719 539.820312 939.484375 544.109375 C 940.203125 544.398438 940.203125 545.398438 939.628906 545.828125 C 933.480469 550.402344 927.042969 555.265625 920.324219 560.414062 C 915.605469 564.132812 909.3125 564.847656 904.304688 561.558594 C 899.871094 558.699219 895.152344 556.265625 890.292969 554.40625 C 889.148438 553.976562 889.003906 553.40625 890.003906 552.546875 C 895.726562 548.402344 900.875 543.109375 905.59375 536.53125 C 907.167969 534.386719 909.023438 533.386719 911.457031 533.671875 Z M 881.710938 613.613281 C 880.851562 613.613281 880.421875 614.472656 880.851562 615.328125 C 883.425781 619.761719 889.578125 628.628906 895.152344 629.058594 C 905.734375 630.058594 919.75 625.910156 929.332031 621.765625 C 929.90625 621.476562 930.046875 620.761719 929.761719 620.335938 C 923.753906 612.46875 917.175781 605.746094 910.167969 600.171875 C 908.167969 598.597656 905.449219 598.738281 903.589844 600.3125 C 898.300781 604.890625 888.144531 613.328125 881.710938 613.613281 Z M 746.855469 433.421875 C 747.710938 434.710938 748.425781 436.140625 748.714844 437.570312 C 749.429688 440.144531 750.285156 440.285156 751.429688 437.855469 C 754.863281 430.847656 759.296875 423.699219 764.730469 416.691406 C 766.589844 414.257812 767.019531 411.542969 765.730469 408.539062 C 762.871094 401.246094 758.152344 393.953125 753.003906 388.089844 C 752.003906 386.945312 750.285156 387.085938 749.570312 388.375 C 745.136719 395.8125 732.265625 410.398438 737.414062 419.121094 C 740.5625 423.984375 743.566406 428.703125 746.855469 433.421875 Z M 824.222656 443.433594 C 830.226562 443.289062 836.519531 442.433594 843.242188 440.859375 C 844.671875 440.574219 845.671875 439.285156 845.671875 437.710938 C 845.816406 430.132812 845.957031 422.265625 845.101562 414.6875 C 844.816406 412.828125 843.957031 412.398438 842.242188 413.257812 C 836.089844 416.546875 830.226562 419.980469 824.363281 423.839844 C 818.5 427.703125 818.929688 434.28125 819.929688 440 C 820.359375 442.003906 822.078125 443.433594 824.222656 443.433594 Z M 715.25 482.902344 C 715.820312 483.617188 716.820312 484.046875 717.824219 484.191406 C 723.6875 484.476562 729.265625 483.476562 734.839844 481.1875 C 735.984375 480.757812 736.84375 479.898438 737.414062 478.753906 C 739.703125 473.894531 741.5625 468.601562 742.992188 463.023438 C 743.277344 462.167969 743.277344 461.164062 743.277344 460.164062 C 742.421875 439.285156 731.980469 424.269531 711.816406 415.117188 C 710.53125 414.546875 709.527344 414.832031 708.957031 416.117188 C 707.382812 418.976562 705.808594 421.839844 704.378906 424.699219 C 698.660156 435.710938 697.515625 446.863281 701.089844 458.019531 C 703.953125 466.601562 708.671875 474.894531 715.25 482.902344 Z M 763.730469 478.46875 C 765.015625 481.617188 767.445312 483.332031 771.023438 483.761719 C 776.027344 484.476562 782.464844 485.761719 786.324219 481.472656 C 791.1875 476.039062 795.621094 469.601562 799.339844 462.167969 C 806.773438 447.578125 798.480469 426.988281 788.46875 416.402344 C 787.753906 415.6875 786.894531 415.546875 786.039062 415.976562 C 760.867188 429.847656 752.574219 452.011719 763.730469 478.46875 Z M 658.761719 444.003906 C 668.199219 443.863281 675.492188 445.292969 683.359375 448.007812 C 684.214844 448.296875 685.074219 447.722656 685.21875 446.722656 C 685.359375 441.289062 686.359375 430.132812 681.355469 426.699219 C 674.347656 422.125 666.339844 418.550781 657.472656 415.976562 C 656.902344 415.832031 656.472656 416.261719 656.472656 416.832031 L 657.617188 442.574219 C 657.472656 443.574219 657.902344 444.003906 658.761719 444.003906 Z M 798.050781 494.488281 C 801.054688 497.917969 804.628906 501.066406 809.0625 503.640625 C 810.0625 504.210938 811.207031 504.496094 812.351562 504.210938 C 822.648438 501.921875 835.234375 497.632812 840.808594 488.050781 C 846.246094 478.753906 847.816406 468.601562 845.53125 457.449219 C 844.671875 453.585938 842.382812 450.296875 838.09375 450.152344 C 827.222656 449.867188 812.636719 451.726562 806.34375 461.59375 C 802.199219 468.171875 792.042969 487.335938 798.050781 494.488281 Z M 691.082031 464.453125 C 684.214844 455.875 670.203125 454.300781 660.046875 454.445312 C 655.472656 454.585938 652.46875 454.730469 651.039062 455.300781 C 641.171875 458.589844 648.894531 479.757812 651.609375 486.476562 C 654.042969 492.484375 658.332031 497.0625 664.765625 500.351562 L 673.492188 504.496094 L 682.070312 507.644531 C 683.929688 508.359375 685.933594 507.644531 687.078125 506.070312 C 687.503906 505.355469 694.371094 499.0625 697.371094 496.203125 C 705.808594 488.195312 697.085938 471.890625 691.082031 464.453125 Z M 664.625 500.351562 C 667.484375 501.78125 670.34375 503.210938 673.347656 504.496094 Z M 852.109375 495.488281 C 858.972656 494.773438 865.980469 494.058594 872.988281 493.199219 C 877.992188 492.628906 881.28125 489.765625 882.570312 484.761719 C 885 475.609375 888.144531 467.316406 891.722656 459.878906 C 892.152344 459.019531 891.863281 458.589844 890.863281 458.734375 L 861.832031 461.164062 C 860.972656 461.164062 860.257812 461.878906 860.117188 462.738281 C 858.972656 471.460938 856.828125 480.042969 853.679688 488.480469 C 852.964844 490.195312 852.109375 491.769531 850.820312 493.199219 C 849.390625 494.914062 849.675781 495.773438 852.109375 495.488281 Z M 615 503.351562 C 615.144531 503.640625 615.429688 503.78125 615.714844 503.78125 L 645.890625 503.496094 C 646.460938 503.496094 646.746094 502.925781 646.460938 502.496094 L 632.734375 473.75 C 632.589844 473.464844 632.304688 473.320312 632.019531 473.320312 L 601.84375 472.75 C 601.269531 472.75 600.984375 473.320312 601.128906 473.75 Z M 747.570312 498.632812 L 752.289062 498.492188 C 754.578125 498.347656 756.292969 496.488281 756.292969 494.199219 L 756.148438 491.199219 C 756.007812 488.910156 754.148438 487.191406 751.859375 487.191406 L 747.140625 487.335938 C 744.851562 487.480469 743.136719 489.339844 743.136719 491.625 L 743.277344 494.628906 C 743.421875 496.917969 745.28125 498.632812 747.570312 498.632812 Z M 720.398438 494.199219 C 717.679688 497.0625 717.535156 501.496094 720.253906 504.066406 C 722.972656 506.640625 727.40625 506.5 730.121094 503.640625 C 732.839844 500.777344 732.980469 496.347656 730.265625 493.773438 C 727.546875 491.199219 723.113281 491.339844 720.398438 494.199219 Z M 776.3125 507.5 C 777.027344 507.5 777.742188 507.359375 778.316406 506.785156 C 781.746094 503.496094 783.894531 493.484375 776.886719 492.628906 C 764.730469 491.199219 764.445312 506.355469 776.3125 507.5 Z M 800.339844 505.925781 L 796.046875 503.351562 C 793.617188 501.921875 790.613281 503.066406 789.757812 505.640625 L 787.753906 511.074219 C 786.753906 513.792969 788.613281 516.511719 791.328125 516.9375 L 793.902344 517.226562 C 795.191406 517.367188 796.335938 516.9375 797.335938 516.222656 L 801.054688 513.078125 C 803.199219 511.074219 802.914062 507.5 800.339844 505.925781 Z M 710.242188 514.507812 L 710.816406 511.363281 C 711.101562 509.933594 710.671875 508.5 709.671875 507.5 L 705.667969 503.78125 C 704.09375 502.210938 701.664062 502.210938 699.945312 503.78125 L 696.800781 506.640625 C 694.796875 508.5 695.085938 511.789062 697.371094 513.222656 L 703.808594 517.226562 C 706.382812 518.796875 709.671875 517.367188 710.242188 514.507812 Z M 830.371094 523.515625 L 838.09375 510.074219 C 839.378906 507.785156 837.09375 505.070312 834.660156 505.925781 L 827.082031 508.644531 C 826.796875 508.789062 821.648438 510.648438 820.21875 511.363281 C 818.359375 512.363281 817.644531 514.652344 818.785156 516.367188 C 819.214844 517.082031 819.644531 517.652344 819.929688 517.941406 L 825.792969 524.089844 C 827.082031 525.519531 829.371094 525.234375 830.371094 523.515625 Z M 863.976562 506.929688 C 852.824219 508.5 844.527344 513.792969 839.238281 522.800781 C 834.375 530.953125 832.660156 538.246094 835.234375 546.828125 C 835.949219 549.402344 837.664062 550.832031 840.238281 550.976562 C 862.40625 552.40625 886.144531 550.6875 897.15625 530.238281 C 899.445312 526.089844 901.730469 521.800781 903.878906 517.367188 C 904.304688 516.511719 904.164062 515.652344 903.304688 515.078125 C 892.292969 507.5 876.417969 505.070312 863.976562 506.929688 Z M 1019.285156 898.773438 C 1017.140625 899.058594 1015.566406 899.914062 1014.707031 901.488281 C 1014.28125 902.203125 1013.707031 902.488281 1012.992188 902.632812 L 994.6875 904.921875 C 994.257812 904.921875 993.972656 905.351562 993.972656 905.777344 L 993.972656 906.351562 C 993.972656 906.921875 994.257812 907.351562 994.832031 907.496094 C 1001.550781 908.78125 1007.988281 908.066406 1014.136719 905.492188 C 1014.851562 905.207031 1015.421875 904.492188 1015.710938 903.777344 C 1015.851562 903.0625 1016.28125 902.777344 1016.996094 903.0625 C 1017.710938 903.347656 1017.996094 903.777344 1017.996094 904.492188 C 1018.140625 906.351562 1017.570312 907.925781 1016.140625 909.066406 C 1009.132812 915.074219 1001.121094 916.648438 992.113281 913.644531 C 991.96875 913.644531 991.683594 913.644531 991.542969 913.789062 C 991.113281 914.074219 991.253906 914.359375 991.542969 914.644531 C 995.402344 916.789062 999.835938 918.792969 1004.554688 920.507812 C 1007.558594 921.652344 1009.703125 923.65625 1010.847656 926.371094 C 1011.277344 927.375 1010.703125 928.375 1009.703125 928.660156 C 1007.703125 929.089844 1005.699219 928.804688 1003.410156 927.945312 C 990.683594 922.796875 978.242188 918.078125 967.230469 909.066406 C 953.070312 897.628906 940.34375 886.042969 925.757812 875.890625 C 914.316406 867.882812 902.734375 860.015625 891.148438 852.007812 C 871.84375 838.707031 857.398438 824.550781 844.527344 804.386719 C 830.226562 781.933594 818.070312 759.339844 807.917969 736.3125 C 807.777344 736.027344 807.632812 736.027344 807.347656 736.027344 C 807.058594 736.171875 806.917969 736.457031 807.058594 736.742188 C 815.355469 758.480469 797.621094 764.773438 794.617188 783.078125 C 791.617188 800.8125 790.328125 822.261719 795.90625 839.136719 C 801.195312 855.296875 810.636719 868.882812 824.078125 879.894531 C 828.082031 883.183594 832.515625 884.328125 837.519531 884.328125 C 862.691406 884.328125 886.285156 886.328125 908.738281 890.046875 C 926.757812 893.195312 946.207031 899.914062 960.652344 912.359375 C 977.957031 927.230469 972.09375 950.96875 953.5 960.980469 C 939.773438 968.273438 923.183594 972.277344 903.734375 972.992188 C 884.429688 973.707031 867.410156 972.992188 852.824219 970.703125 C 838.808594 968.558594 822.503906 965.558594 803.914062 961.550781 C 800.054688 960.695312 793.902344 960.265625 790.183594 961.695312 C 774.027344 967.703125 758.867188 972.136719 744.421875 974.851562 C 704.378906 982.433594 664.050781 986.578125 625.011719 980.714844 C 608.277344 978.140625 591.691406 974.996094 574.957031 970.992188 C 554.222656 965.984375 534.34375 957.40625 531.625 934.382812 C 527.90625 902.777344 585.539062 891.335938 606.707031 888.902344 C 625.582031 886.757812 644.890625 885.042969 664.480469 883.898438 C 670.058594 883.613281 674.921875 881.46875 678.925781 877.890625 C 698.515625 860.445312 708.242188 838.136719 707.8125 811.109375 C 707.667969 800.097656 706.8125 790.371094 705.09375 781.789062 C 703.378906 773.066406 696.371094 764.914062 692.511719 756.765625 C 690.222656 751.902344 690.792969 746.183594 691.507812 741.460938 C 692.367188 735.597656 691.652344 735.457031 689.363281 740.890625 C 678.640625 767.0625 665.339844 791.371094 649.609375 813.96875 C 632.589844 838.566406 606.992188 854.582031 582.109375 871.3125 C 565.519531 881.898438 550.359375 893.625 536.632812 905.921875 C 524.90625 916.503906 509.601562 923.082031 494.445312 929.375 C 492.585938 930.234375 491.15625 929.660156 490.011719 927.945312 L 489.582031 927.230469 C 489.152344 926.371094 489.4375 925.371094 490.296875 924.941406 C 494.015625 923.082031 497.589844 920.078125 500.734375 916.074219 C 501.023438 915.789062 500.734375 915.21875 500.308594 915.21875 C 498.160156 914.929688 496.160156 915.359375 494.15625 914.503906 C 490.441406 912.929688 486.863281 911.5 483.289062 910.355469 C 482.144531 909.925781 481.429688 909.210938 481.144531 907.925781 L 481 906.921875 C 480.714844 905.351562 481.285156 904.777344 482.859375 905.0625 L 488.867188 906.066406 C 490.152344 906.207031 490.296875 905.921875 489.296875 905.0625 C 487.152344 903.0625 484.433594 901.347656 481.429688 900.203125 C 480.859375 899.914062 480.429688 899.488281 480.285156 898.914062 L 480.285156 897.914062 C 480 896.769531 480.429688 896.484375 481.574219 896.769531 L 499.734375 901.773438 C 504.597656 903.0625 504.742188 904.777344 500.164062 906.921875 C 498.160156 907.925781 495.875 908.210938 493.585938 907.78125 C 493.015625 907.636719 492.726562 907.925781 492.726562 908.496094 L 492.726562 909.496094 C 492.726562 909.640625 492.726562 909.640625 492.871094 909.640625 C 495.589844 909.925781 498.304688 910.070312 501.164062 909.925781 C 503.738281 909.785156 505.742188 908.496094 507.601562 906.78125 C 508.171875 906.207031 508.03125 905.351562 507.457031 904.921875 C 503.597656 902.488281 501.738281 899.199219 501.59375 895.339844 C 501.453125 886.042969 502.308594 876.175781 508.601562 869.3125 C 509.601562 868.3125 511.03125 867.882812 512.464844 868.3125 C 522.1875 871.171875 531.769531 873.171875 541.351562 874.601562 C 549.789062 875.890625 565.089844 858.871094 569.667969 852.867188 C 579.675781 839.851562 589.117188 827.554688 598.269531 815.828125 C 603.988281 808.535156 611.710938 801.527344 621.433594 794.660156 C 625.441406 791.800781 629.015625 787.226562 631.160156 782.792969 C 642.457031 758.335938 652.324219 733.167969 660.621094 706.996094 C 665.339844 692.410156 671.488281 676.394531 688.21875 672.675781 C 703.378906 669.242188 719.394531 668.957031 726.976562 652.941406 C 733.269531 639.785156 735.269531 626.339844 732.980469 612.613281 C 732.265625 608.464844 730.265625 604.03125 726.691406 599.3125 C 721.683594 592.589844 717.824219 584.582031 715.105469 575.285156 C 713.820312 570.851562 715.535156 566.5625 714.964844 561.988281 C 712.390625 540.390625 720.398438 511.074219 747.28125 509.359375 C 775.027344 507.5 788.46875 534.957031 786.039062 558.839844 C 785.179688 566.992188 786.324219 575.574219 782.890625 583.007812 C 778.457031 592.589844 773.023438 601.601562 766.589844 609.894531 C 766.015625 610.609375 765.730469 611.324219 765.589844 612.183594 C 763.585938 633.347656 769.304688 662.808594 792.757812 668.957031 C 799.480469 670.671875 806.632812 672.675781 813.925781 674.820312 C 826.9375 678.539062 832.945312 691.410156 836.949219 702.992188 C 845.816406 729.308594 856.253906 755.191406 867.980469 780.359375 C 871.128906 786.9375 875.417969 792.375 881.425781 796.664062 C 899.585938 809.390625 911.886719 828.125 925.183594 845.429688 C 931.476562 853.582031 949.210938 874.890625 958.507812 874.316406 C 968.515625 873.746094 978.527344 871.601562 988.539062 868.023438 C 989.824219 867.597656 991.113281 868.023438 991.96875 869.027344 C 997.261719 876.320312 999.691406 884.328125 999.121094 893.050781 C 998.976562 895.339844 997.976562 896.769531 996.976562 898.773438 C 995.6875 901.347656 996.402344 902.0625 998.976562 901.058594 C 1004.984375 898.773438 1010.992188 897.054688 1017.28125 896.054688 C 1018.285156 895.910156 1019.140625 896.484375 1019.429688 897.339844 L 1019.714844 898.058594 C 1020 898.34375 1019.714844 898.773438 1019.285156 898.773438 Z M 523.472656 881.753906 L 515.179688 878.035156 C 512.890625 877.035156 510.175781 878.609375 510.03125 881.039062 L 509.03125 892.335938 C 508.746094 894.910156 511.175781 896.914062 513.75 896.199219 L 516.179688 895.484375 C 516.753906 895.339844 517.324219 894.910156 517.898438 894.480469 L 524.761719 887.617188 C 526.335938 885.902344 525.761719 882.753906 523.472656 881.753906 Z M 765.589844 912.644531 C 755.71875 911.070312 749.714844 920.078125 743.851562 926.660156 C 740.703125 930.234375 736.84375 930.949219 732.265625 930.804688 C 720.109375 930.375 707.8125 927.230469 695.226562 921.367188 C 685.21875 916.648438 675.0625 913.214844 665.054688 910.785156 C 651.609375 907.636719 638.308594 908.496094 625.296875 913.359375 C 620.433594 915.21875 620.578125 916.074219 625.726562 916.074219 C 642.601562 915.933594 660.046875 919.363281 678.210938 926.230469 C 698.804688 934.238281 717.109375 943.820312 739.988281 941.960938 C 749.285156 941.246094 753.003906 933.09375 757.867188 927.230469 C 760.152344 924.371094 764.015625 923.226562 767.589844 924.085938 C 777.886719 926.660156 788.753906 933.238281 799.765625 930.375 C 829.511719 922.511719 856.683594 906.351562 888.859375 905.777344 C 897.15625 905.636719 905.308594 906.351562 913.457031 907.925781 C 918.179688 908.78125 918.464844 908.210938 914.171875 906.066406 C 877.707031 887.617188 838.664062 905.0625 803.914062 917.933594 C 789.46875 923.082031 779.03125 914.789062 765.589844 912.644531 Z M 992.542969 890.476562 L 990.96875 881.179688 C 990.539062 878.035156 987.109375 876.320312 984.246094 877.605469 L 978.242188 880.324219 C 975.382812 881.609375 974.523438 885.328125 976.523438 887.761719 L 980.816406 892.910156 C 981.246094 893.480469 981.816406 893.910156 982.53125 894.195312 L 985.820312 895.625 C 989.253906 897.199219 993.113281 894.339844 992.542969 890.476562 Z M 687.792969 519.800781 C 687.078125 519.226562 686.074219 519.371094 685.644531 520.226562 C 683.929688 523.230469 681.214844 529.238281 685.074219 531.667969 C 687.503906 533.242188 690.078125 534.386719 692.796875 535.101562 C 695.515625 535.816406 698.230469 533.8125 698.375 530.953125 L 698.515625 528.953125 C 698.660156 526.089844 697.371094 524.089844 694.65625 523.230469 C 691.652344 522.375 689.363281 521.230469 687.792969 519.800781 Z M 804.773438 522.230469 C 800.625 524.660156 798.910156 529.378906 800.910156 532.8125 C 802.914062 536.246094 807.917969 537.101562 812.066406 534.671875 C 816.210938 532.242188 817.929688 527.523438 815.925781 524.089844 C 813.925781 520.65625 808.917969 519.941406 804.773438 522.230469 Z M 676.066406 546.253906 L 674.492188 553.835938 C 674.207031 555.550781 675.207031 557.125 676.921875 557.554688 L 680.496094 558.269531 C 685.21875 559.269531 689.648438 557.265625 690.367188 553.691406 L 690.507812 552.691406 C 691.222656 549.257812 688.078125 545.539062 683.359375 544.539062 L 679.78125 543.824219 C 678.066406 543.539062 676.351562 544.539062 676.066406 546.253906 Z M 811.636719 545.253906 C 809.207031 545.398438 807.488281 547.542969 807.632812 549.972656 L 807.777344 552.546875 C 807.777344 554.40625 809.207031 556.125 810.921875 556.695312 L 817.5 558.554688 C 820.789062 559.554688 823.792969 556.695312 823.21875 553.40625 L 822.21875 548.402344 C 821.789062 546.113281 819.644531 544.683594 817.5 544.824219 Z M 841.097656 565.992188 C 836.804688 568.277344 834.230469 571.28125 833.375 574.714844 C 829.371094 590.300781 848.675781 599.597656 860.402344 602.886719 C 878.707031 608.179688 892.4375 599.453125 905.308594 586.871094 C 906.164062 586.011719 906.308594 584.582031 905.59375 583.582031 C 888.859375 562.558594 866.835938 551.832031 841.097656 565.992188 Z M 821.074219 580.148438 L 824.078125 573.855469 C 825.078125 571.710938 823.792969 569.136719 821.359375 568.707031 L 811.78125 566.992188 C 809.0625 566.5625 806.917969 568.996094 807.632812 571.710938 L 808.777344 575.574219 C 809.0625 576.289062 809.492188 577.003906 810.0625 577.433594 L 815.496094 581.578125 C 817.355469 583.007812 820.074219 582.292969 821.074219 580.148438 Z M 689.078125 578.574219 L 690.792969 574 C 691.796875 571.28125 689.792969 568.421875 686.933594 568.566406 L 679.210938 568.707031 C 677.207031 568.707031 675.492188 570.425781 675.207031 572.425781 L 674.777344 577.859375 C 674.632812 580.433594 676.921875 582.578125 679.496094 582.152344 L 685.933594 581.148438 C 687.363281 580.863281 688.507812 579.863281 689.078125 578.574219 Z M 671.34375 600.457031 C 671.773438 599.882812 671.917969 599.167969 671.632812 598.597656 C 668.769531 593.164062 666.054688 587.871094 663.621094 582.722656 C 659.617188 574.570312 644.601562 574.714844 637.023438 575.714844 C 616.144531 578.433594 607.992188 592.019531 604.703125 611.183594 C 604.558594 612.039062 604.988281 612.898438 605.847656 613.183594 C 617.289062 617.332031 629.300781 618.902344 642.171875 617.617188 C 652.609375 616.757812 664.339844 607.890625 671.34375 600.457031 Z M 810.921875 605.890625 C 815.640625 602.457031 817.644531 598.3125 816.785156 593.304688 C 816.5 591.734375 815.355469 590.589844 813.78125 590.589844 L 807.488281 590.300781 C 806.773438 590.300781 806.203125 590.015625 805.628906 589.730469 C 804.773438 589.160156 803.769531 588.871094 802.769531 588.730469 C 802.054688 588.585938 801.484375 588.871094 801.195312 589.585938 C 800.195312 592.449219 799.910156 595.164062 800.195312 597.882812 C 800.339844 598.738281 800.625 599.453125 801.339844 600.027344 L 808.632812 606.035156 C 809.492188 606.460938 810.207031 606.460938 810.921875 605.890625 Z M 683.5 603.171875 C 684.359375 606.175781 688.21875 607.175781 690.507812 605.03125 L 695.371094 600.171875 C 695.65625 599.882812 695.941406 599.453125 696.085938 599.167969 L 697.515625 596.453125 C 699.089844 593.449219 696.515625 590.015625 693.226562 590.445312 L 685.074219 591.589844 C 682.644531 591.875 680.925781 594.449219 681.640625 596.878906 Z M 873.558594 647.503906 C 880.996094 644.789062 877.5625 637.636719 875.5625 632.632812 C 870.984375 621.765625 864.550781 614.613281 855.96875 611.183594 C 846.816406 607.464844 838.09375 604.601562 829.941406 602.457031 C 828.367188 602.027344 826.652344 602.457031 825.367188 603.601562 C 820.503906 608.035156 814.355469 619.476562 818.644531 626.339844 C 824.507812 635.636719 840.238281 643.929688 849.675781 647.363281 C 857.683594 650.367188 865.695312 650.367188 873.558594 647.503906 Z M 788.613281 609.035156 C 786.039062 615.472656 792.1875 618.1875 796.046875 621.476562 C 796.765625 622.191406 797.621094 622.050781 798.335938 621.476562 C 807.347656 613.46875 801.625 609.035156 792.902344 606.890625 C 790.757812 606.320312 789.328125 607.035156 788.613281 609.035156 Z M 707.242188 619.761719 C 709.957031 616.472656 709.671875 613.039062 706.527344 609.609375 C 705.808594 608.894531 705.09375 608.609375 704.09375 608.464844 C 700.804688 608.464844 693.367188 612.039062 691.507812 614.757812 C 690.507812 616.1875 690.652344 617.472656 691.796875 618.902344 C 697.371094 625.339844 702.519531 625.769531 707.242188 619.761719 Z M 654.613281 692.695312 C 661.191406 667.671875 678.210938 662.378906 700.804688 659.234375 C 703.808594 658.804688 706.667969 657.945312 709.242188 656.660156 C 711.671875 655.515625 712.246094 652.367188 710.386719 650.367188 C 707.957031 647.792969 705.238281 644.933594 702.234375 642.929688 C 694.082031 637.066406 687.933594 629.914062 683.785156 621.621094 C 683.5 620.90625 682.5 620.90625 682.070312 621.476562 C 676.351562 628.484375 671.058594 635.351562 666.054688 641.785156 C 656.472656 653.941406 653.613281 676.25 653.039062 691.980469 C 653.039062 692.410156 653.183594 692.839844 653.613281 693.125 C 654.042969 693.410156 654.46875 693.410156 654.613281 692.695312 Z M 777.601562 628.058594 L 777.316406 633.492188 C 777.316406 634.0625 777.316406 634.777344 777.601562 635.351562 L 778.746094 637.78125 C 779.890625 640.5 783.605469 640.925781 785.324219 638.496094 L 789.183594 632.917969 C 790.472656 631.058594 789.898438 628.34375 787.753906 627.339844 L 783.035156 625.054688 C 780.605469 623.625 777.742188 625.339844 777.601562 628.058594 Z M 719.539062 639.066406 C 722.683594 635.777344 723.542969 631.917969 721.828125 627.628906 C 721.542969 626.914062 720.96875 626.484375 720.109375 626.339844 C 716.964844 625.910156 714.246094 626.625 711.816406 628.773438 C 710.671875 629.773438 709.097656 630.058594 707.957031 630.917969 C 706.238281 632.203125 706.097656 633.632812 707.527344 635.0625 C 710.386719 638.210938 713.675781 639.785156 717.25 639.925781 C 718.109375 640.070312 718.96875 639.785156 719.539062 639.066406 Z M 788.898438 656.085938 C 796.191406 658.515625 803.769531 660.375 811.78125 661.519531 C 828.082031 664.09375 840.238281 678.539062 844.957031 692.554688 C 845.386719 693.984375 845.671875 693.984375 845.957031 692.410156 C 846.960938 681.828125 846.246094 664.378906 838.953125 656.371094 C 831.230469 647.792969 819.644531 639.785156 809.207031 633.921875 C 808.492188 633.492188 807.488281 633.632812 806.773438 634.207031 L 787.753906 650.796875 C 786.039062 652.367188 786.609375 655.226562 788.898438 656.085938 Z M 659.476562 629.058594 C 648.894531 632.0625 641.886719 629.34375 631.875 627.339844 C 629.585938 626.914062 627.441406 626.914062 625.441406 627.484375 C 624.722656 627.628906 624.152344 628.058594 623.722656 628.773438 C 620.003906 636.636719 616.859375 645.074219 614.285156 653.941406 C 614.140625 654.371094 614.429688 654.800781 615 654.800781 C 623.867188 654.65625 632.589844 654.511719 641.027344 654.085938 C 647.464844 653.796875 650.464844 648.363281 653.039062 643.359375 C 655.328125 638.78125 657.902344 634.636719 660.476562 630.488281 C 661.335938 629.058594 661.046875 628.628906 659.476562 629.058594 Z M 893.722656 677.25 C 894.007812 677.25 894.296875 676.964844 894.152344 676.679688 C 892.007812 668.8125 889.433594 661.519531 886.429688 654.800781 C 885.714844 653.226562 883.714844 652.796875 882.425781 653.796875 C 874.417969 660.234375 866.121094 662.808594 857.257812 661.519531 C 856.113281 661.378906 855.828125 661.808594 855.96875 662.949219 C 859.117188 675.964844 883.714844 676.535156 893.722656 677.25 Z M 686.359375 506.355469 L 686.648438 506.355469 C 686.503906 506.355469 686.789062 505.785156 686.359375 506.355469 Z M 667.484375 523.945312 L 667.339844 523.804688 C 647.320312 508.5 619.433594 514.507812 601.128906 529.808594 C 600.554688 530.382812 600.414062 530.953125 600.699219 531.667969 C 605.703125 541.824219 612.855469 550.546875 623.292969 555.265625 C 634.304688 560.269531 647.605469 557.695312 659.332031 554.550781 C 661.90625 553.835938 664.050781 552.40625 665.339844 550.261719 C 668.199219 545.96875 669.199219 541.109375 670.203125 536.386719 C 670.628906 534.386719 671.058594 532.382812 671.632812 530.382812 C 672.058594 528.808594 671.488281 526.949219 670.203125 525.949219 Z M 676.636719 508.644531 L 661.476562 506.070312 C 658.902344 505.640625 657.1875 508.644531 658.761719 510.648438 L 663.910156 516.796875 C 664.050781 517.082031 667.628906 521.230469 668.769531 522.230469 C 670.34375 523.660156 672.632812 523.515625 674.0625 521.945312 C 674.492188 521.371094 674.921875 520.65625 675.207031 520.371094 L 678.925781 512.648438 C 679.640625 510.933594 678.496094 508.929688 676.636719 508.644531 Z M 759.152344 475.039062 L 754.289062 460.308594 C 753.433594 457.875 750 457.734375 748.855469 460.023438 L 745.710938 467.457031 C 745.566406 467.746094 743.566406 472.890625 743.136719 474.324219 C 742.5625 476.324219 743.851562 478.46875 745.851562 478.753906 C 746.566406 478.898438 747.425781 479.042969 747.855469 478.898438 L 756.433594 478.613281 C 758.4375 478.753906 759.722656 476.898438 759.152344 475.039062 Z M 602.988281 586.011719 C 603.273438 586.15625 603.558594 586.15625 603.84375 586.011719 L 628.441406 568.421875 C 628.871094 568.136719 628.871094 567.421875 628.441406 567.277344 L 600.84375 551.546875 C 600.554688 551.402344 600.269531 551.402344 600.128906 551.546875 L 574.671875 568.421875 C 574.242188 568.707031 574.242188 569.421875 574.671875 569.566406 Z M 602.988281 586.011719 " fill-opacity="1" fill-rule="nonzero"/><g transform="matrix(1, 0, 0, 1, 495, 980)"><g clip-path="url(#503a4263f1)"><g fill="#f5f2ed" fill-opacity="1"><g transform="translate(3.650528, 138.410079)"><g><path d="M 24.4375 -82.5 C 24.4375 -78.070312 26.171875 -73.972656 29.640625 -70.203125 C 33.109375 -66.429688 37.328125 -63.113281 42.296875 -60.25 C 47.273438 -57.382812 52.226562 -54.46875 57.15625 -51.5 C 62.082031 -48.53125 66.28125 -44.882812 69.75 -40.5625 C 73.21875 -36.238281 74.953125 -31.460938 74.953125 -26.234375 C 74.953125 -17.992188 71.910156 -11.257812 65.828125 -6.03125 C 59.742188 -0.800781 51.523438 1.8125 41.171875 1.8125 C 30.816406 1.8125 20.5625 -0.148438 10.40625 -4.078125 L 10.40625 -11.15625 C 20.65625 -6.03125 29.375 -3.46875 36.5625 -3.46875 C 43.757812 -3.46875 49.367188 -5.226562 53.390625 -8.75 C 57.410156 -12.269531 59.421875 -17.144531 59.421875 -23.375 C 59.421875 -27.59375 57.757812 -31.4375 54.4375 -34.90625 C 51.125 -38.375 47.101562 -41.390625 42.375 -43.953125 C 37.65625 -46.523438 32.929688 -49.164062 28.203125 -51.875 C 23.472656 -54.59375 19.445312 -58.035156 16.125 -62.203125 C 12.8125 -66.378906 11.15625 -71.429688 11.15625 -77.359375 C 11.15625 -83.296875 13.796875 -88.828125 19.078125 -93.953125 C 24.359375 -99.078125 32.226562 -101.640625 42.6875 -101.640625 C 49.519531 -101.640625 58.164062 -100.082031 68.625 -96.96875 L 67.109375 -86.71875 C 53.535156 -92.550781 41.925781 -95.46875 32.28125 -95.46875 C 27.050781 -92.945312 24.4375 -88.625 24.4375 -82.5 Z M 24.4375 -82.5 "/></g></g></g><g fill="#f5f2ed" fill-opacity="1"><g transform="translate(87.493462, 138.410079)"><g><path d="M 13.578125 0 L 13.578125 -99.84375 L 74.046875 -99.84375 L 72.546875 -89.734375 L 44.484375 -94.40625 C 39.554688 -94.40625 34.128906 -93.550781 28.203125 -91.84375 L 28.203125 -55.203125 L 61.6875 -55.203125 L 61.6875 -49.46875 L 28.203125 -49.46875 L 28.203125 -5.421875 L 74.953125 -10.109375 L 73.453125 0 Z M 13.578125 0 "/></g></g></g><g fill="#f5f2ed" fill-opacity="1"><g transform="translate(172.241165, 138.410079)"><g><path d="M 89.4375 1.65625 L 86.875 1.65625 L 20.8125 -80.984375 L 20.203125 -80.984375 L 20.203125 0 L 13.578125 0 L 13.578125 -99.84375 L 24.734375 -99.84375 L 82.1875 -27.296875 L 82.796875 -27.296875 L 82.796875 -99.84375 L 89.4375 -99.84375 Z M 89.4375 1.65625 "/></g></g></g><g fill="#f5f2ed" fill-opacity="1"><g transform="translate(275.235281, 138.410079)"><g><path d="M 47.65625 0 L 33.03125 0 L 33.03125 -92.59375 C 29.613281 -93.40625 26.191406 -93.8125 22.765625 -93.8125 L 2.40625 -89.125 L 1.515625 -99.84375 L 79.171875 -99.84375 L 78.421875 -89.125 L 57.90625 -93.8125 C 54.488281 -93.8125 51.070312 -93.40625 47.65625 -92.59375 Z M 47.65625 0 "/></g></g></g><g fill="#f5f2ed" fill-opacity="1"><g transform="translate(355.911499, 138.410079)"><g><path d="M 27.453125 -99.84375 L 27.453125 0 L 13.578125 0 L 13.578125 -99.84375 Z M 27.453125 -99.84375 "/></g></g></g><g fill="#f5f2ed" fill-opacity="1"><g transform="translate(396.928174, 138.410079)"><g><path d="M 58.96875 -101.640625 C 72.039062 -101.640625 82.847656 -97.34375 91.390625 -88.75 C 99.941406 -80.15625 104.21875 -68.21875 104.21875 -52.9375 C 104.21875 -43.082031 102.503906 -34.457031 99.078125 -27.0625 C 95.660156 -19.675781 91.1875 -13.972656 85.65625 -9.953125 C 74.90625 -2.109375 63.039062 1.8125 50.0625 1.8125 C 37.09375 1.8125 26.359375 -2.535156 17.859375 -11.234375 C 9.367188 -19.929688 5.125 -31.921875 5.125 -47.203125 C 5.125 -55.148438 6.253906 -62.3125 8.515625 -68.6875 C 10.785156 -75.070312 13.753906 -80.273438 17.421875 -84.296875 C 21.085938 -88.328125 25.332031 -91.695312 30.15625 -94.40625 C 39.007812 -99.226562 48.613281 -101.640625 58.96875 -101.640625 Z M 28.65625 -17.1875 C 31.269531 -12.769531 34.785156 -9.328125 39.203125 -6.859375 C 43.628906 -4.398438 48.734375 -3.171875 54.515625 -3.171875 C 60.296875 -3.171875 65.445312 -4.628906 69.96875 -7.546875 C 74.5 -10.460938 78.019531 -14.28125 80.53125 -19 C 85.65625 -28.445312 88.21875 -38.601562 88.21875 -49.46875 C 88.21875 -62.84375 85.554688 -73.597656 80.234375 -81.734375 C 74.296875 -90.890625 64.492188 -95.46875 50.828125 -95.46875 C 41.066406 -92.050781 33.671875 -86.164062 28.640625 -77.8125 C 23.617188 -69.46875 21.109375 -60.019531 21.109375 -49.46875 C 21.109375 -36.59375 23.625 -25.832031 28.65625 -17.1875 Z M 28.65625 -17.1875 "/></g></g></g></g></g></svg>