<svg xmlns="http://www.w3.org/2000/svg" xmlns:xlink="http://www.w3.org/1999/xlink" width="2000" zoomAndPan="magnify" viewBox="0 0 1500 1499.999933" height="2000" preserveAspectRatio="xMidYMid meet" version="1.0"><path fill="#ffffff" d="M 1018.597656 579.875 C 1022.132812 577.917969 1025.121094 575.0625 1027.597656 571.609375 C 1024.90625 565.058594 1021.425781 562.554688 1017.863281 562.554688 C 1013.785156 562.554688 1009.246094 565.683594 1005.46875 569.679688 C 1001.496094 573.867188 998.5625 578.785156 997.800781 582.128906 L 997.773438 582.128906 C 997.582031 582.210938 995.570312 581.832031 996.167969 581.96875 L 996.304688 581.996094 C 1005.519531 584.089844 1012.863281 583.082031 1018.597656 579.875 M 693.859375 409.824219 C 691.765625 403.382812 686.328125 396.394531 675.859375 390.140625 C 675.644531 391.121094 675.507812 392.152344 675.480469 393.214844 C 674.855469 412.433594 678.28125 422.546875 682.738281 426.597656 C 685.59375 429.179688 689.074219 428.445312 691.464844 425.835938 C 694.511719 422.492188 696.03125 416.566406 693.859375 409.824219 Z M 547.488281 671.816406 C 547.40625 675.488281 547.488281 678.886719 547.757812 682.09375 C 559.9375 681.332031 564.371094 678.832031 564.585938 676.085938 C 564.695312 674.644531 563.09375 672.796875 560.808594 671.136719 C 558.0625 669.152344 554.609375 667.765625 551.675781 667.710938 L 551.648438 667.710938 C 549.390625 667.6875 547.570312 668.800781 547.488281 671.816406 Z M 769.109375 848.691406 C 764.460938 845.429688 759.050781 841.921875 752.824219 838.144531 C 747.277344 834.773438 743.609375 835.886719 741.84375 838.796875 C 740.644531 840.726562 740.046875 843.335938 740.019531 846.082031 C 739.992188 848.9375 740.589844 851.871094 741.871094 854.375 C 744.5625 859.703125 750.839844 862.828125 761.171875 857.609375 C 763.699219 856.332031 766.390625 853.285156 768.945312 848.992188 Z M 628.855469 552.714844 C 635.40625 559.292969 641.632812 564.269531 647.503906 567.914062 L 647.316406 566.851562 C 646.28125 560.464844 647.179688 553.070312 650.660156 544.722656 C 649.027344 545.019531 647.453125 545.375 645.875 545.753906 C 639.078125 547.496094 633.070312 549.96875 628.855469 552.714844 Z M 601.261719 518.105469 C 602.402344 519.820312 603.546875 521.476562 604.660156 523.109375 C 615.617188 518.679688 628.992188 516.203125 643.128906 515.46875 C 642.613281 507.585938 643.101562 499.050781 645.003906 490.839844 C 646.308594 485.210938 648.292969 479.691406 651.066406 474.609375 L 649.761719 474.121094 C 641.171875 471.210938 630.730469 471.238281 621.191406 473.765625 C 611.808594 476.265625 603.410156 481.132812 598.734375 487.902344 C 593.515625 495.488281 592.996094 505.738281 601.261719 518.105469 Z M 720.335938 537.382812 C 719.738281 540.34375 718.898438 543.390625 717.835938 546.460938 C 721.5625 545.539062 725.230469 544.234375 728.765625 542.574219 C 726.320312 540.726562 723.492188 539.011719 720.335938 537.382812 Z M 677.871094 620.328125 C 668.085938 610.402344 660.691406 597.355469 656.152344 583.679688 C 654.953125 582.539062 653.867188 581.289062 652.886719 579.984375 C 643.671875 576.039062 633.695312 569.136719 623.011719 558.480469 C 622.628906 559.265625 622.441406 560.054688 622.414062 560.816406 C 622.304688 593.847656 638.019531 614.835938 659.46875 624.566406 C 664.386719 623.914062 669.253906 622.882812 673.875 621.550781 C 675.234375 621.171875 676.566406 620.761719 677.871094 620.328125 Z M 691.355469 630.984375 C 689.128906 629.679688 686.980469 628.210938 684.914062 626.605469 C 682.085938 627.695312 679.179688 628.671875 676.160156 629.542969 L 675.78125 629.652344 C 680.835938 630.605469 686.082031 631.039062 691.355469 630.984375 Z M 844.550781 592.542969 C 855.371094 591.484375 863.335938 586.699219 868.9375 579.765625 C 860.808594 581.695312 854.3125 583.542969 848.957031 585.230469 L 848.464844 586.152344 C 847.242188 588.328125 845.9375 590.449219 844.550781 592.542969 Z M 830.632812 591.972656 C 831.910156 592.191406 833.160156 592.351562 834.355469 592.460938 C 835.089844 591.535156 835.796875 590.585938 836.476562 589.632812 C 834.546875 590.394531 832.808594 591.101562 831.175781 591.753906 Z M 827.75 599.882812 C 824.433594 599.257812 820.925781 598.414062 817.285156 597.273438 L 815.761719 596.757812 C 808.636719 598.0625 799.449219 598.089844 782.429688 596.484375 C 780.148438 596.265625 778.488281 594.253906 778.679688 592 C 778.898438 589.714844 780.910156 588.058594 783.164062 588.246094 C 791.566406 589.035156 797.898438 589.390625 802.957031 589.390625 C 795.832031 583.953125 788.765625 576.476562 783.109375 568.183594 C 776.367188 593.984375 760.574219 613.015625 741.242188 624.867188 C 737.710938 627.042969 734.066406 628.972656 730.316406 630.628906 C 779.222656 630.984375 809.671875 617.800781 827.75 599.882812 Z M 878.535156 503.074219 C 883.128906 510.195312 886.308594 519.738281 887.695312 530.070312 C 888.945312 539.394531 888.785156 549.398438 886.90625 558.832031 C 886.390625 561.441406 885.738281 564.023438 884.949219 566.527344 C 901.425781 560.734375 910.558594 553.855469 913.875 546.570312 C 917.574219 538.46875 913.578125 529.335938 904.386719 520.5 C 897.972656 514.355469 889.109375 508.402344 878.535156 503.074219 Z M 856.921875 522.972656 C 861 516.148438 863.554688 508.265625 864.5625 500.136719 C 863.226562 499.402344 861.84375 498.914062 860.402344 498.722656 C 843.191406 496.441406 830.769531 497.039062 821.90625 499.375 C 827.234375 499.238281 833.023438 499.402344 839.359375 499.863281 C 846.535156 500.410156 853.441406 509.542969 856.921875 522.972656 Z M 871.710938 507.449219 C 870.160156 514.628906 867.496094 521.53125 863.746094 527.675781 C 862.304688 530.042969 860.671875 532.296875 858.90625 534.445312 C 859.558594 541.160156 859.476562 548.5 858.390625 556.113281 C 857.492188 562.394531 855.886719 568.835938 853.46875 575.226562 C 857.546875 574.054688 862.167969 572.859375 867.441406 571.609375 C 870.050781 570.984375 872.554688 570.359375 874.945312 569.679688 C 876.632812 565.792969 877.910156 561.605469 878.75 557.28125 C 880.464844 548.71875 880.601562 539.636719 879.457031 531.210938 C 878.234375 521.886719 875.515625 513.429688 871.710938 507.449219 Z M 759.023438 466.996094 C 765.277344 448.128906 783.871094 433.773438 822.964844 435.082031 C 848.003906 435.921875 863.609375 451.527344 870.023438 471.15625 C 872.117188 477.625 873.234375 484.53125 873.316406 491.464844 C 888.566406 498.152344 901.371094 506.089844 910.152344 514.546875 C 921.976562 525.882812 926.789062 538.277344 921.433594 550.023438 C 916.757812 560.273438 904.007812 569.597656 880.816406 576.613281 C 879.296875 579.519531 877.527344 582.292969 875.488281 584.820312 C 867.277344 595.070312 855.074219 601.675781 838.054688 601.050781 C 817.636719 624.566406 780.148438 642.078125 715.6875 638.488281 C 713.214844 638.351562 710.796875 638.027344 708.429688 637.5625 C 705.601562 638.105469 702.773438 638.515625 699.949219 638.785156 C 685.621094 640.226562 671.320312 638.378906 658.597656 633.160156 L 658.273438 633.023438 C 654.765625 633.402344 651.230469 633.621094 647.695312 633.621094 C 637.855469 633.675781 628.011719 632.207031 618.933594 628.753906 C 595.632812 619.945312 577.5 598.523438 577.3125 557.171875 C 577.257812 543.472656 584.949219 533.46875 597.101562 526.671875 L 594.382812 522.675781 C 583.863281 506.933594 584.839844 493.421875 591.9375 483.199219 C 597.808594 474.71875 607.921875 468.738281 619.097656 465.746094 C 630.105469 462.808594 642.285156 462.808594 652.453125 466.261719 C 653.570312 466.644531 654.65625 467.050781 655.714844 467.511719 C 663.953125 456.9375 676.757812 449.324219 695.816406 448.183594 C 710.089844 447.339844 723.871094 448.320312 735.398438 451.882812 C 744.234375 454.601562 751.765625 458.839844 757.3125 464.929688 C 757.910156 465.609375 758.480469 466.289062 759.023438 466.996094 Z M 768.292969 503.941406 C 770.035156 509.136719 772.316406 514.109375 774.953125 518.597656 C 775.308594 518 775.6875 517.398438 776.097656 516.800781 C 774.710938 511.71875 772.398438 507.804688 769.355469 504.894531 Z M 786.480469 533.058594 C 789.824219 535.96875 793.222656 537.871094 796.40625 538.386719 C 795.507812 536.050781 794.773438 533.496094 794.285156 530.855469 C 793.46875 526.371094 793.222656 521.503906 794.039062 516.71875 C 794.285156 515.253906 794.636719 513.8125 795.101562 512.371094 C 791.429688 513.894531 788.464844 515.769531 786.128906 517.890625 C 785.746094 518.242188 785.367188 518.597656 785.015625 518.976562 L 785.230469 520.390625 C 785.882812 524.714844 786.265625 528.953125 786.480469 533.058594 Z M 804.015625 536.320312 C 808.421875 532.542969 811.847656 523.789062 813.070312 508.210938 C 810.488281 508.484375 808.09375 508.808594 805.867188 509.246094 C 803.90625 511.964844 802.792969 515.007812 802.25 518.105469 C 801.597656 521.886719 801.789062 525.800781 802.441406 529.390625 C 802.902344 531.945312 803.445312 534.28125 804.015625 536.320312 Z M 800.589844 546.707031 C 799.804688 546.816406 799.015625 546.871094 798.199219 546.871094 C 794.421875 546.871094 790.476562 545.566406 786.617188 543.253906 C 786.480469 547.710938 786.128906 552.035156 785.53125 556.195312 C 793.035156 570.386719 805.648438 583.164062 816.414062 588.085938 C 820.355469 587.160156 823.753906 585.773438 828.050781 584.035156 C 832.019531 582.429688 836.695312 580.527344 843.082031 578.378906 C 846.808594 570.605469 849.0625 562.609375 850.179688 554.917969 C 850.804688 550.511719 851.074219 546.21875 851.023438 542.085938 C 839.875 550.8125 824.597656 555.105469 805.320312 551.574219 C 804.316406 551.410156 802.496094 549.589844 800.589844 546.707031 Z M 821.390625 507.695312 C 819.839844 527.378906 814.753906 538.632812 807.957031 543.660156 C 826.609375 546.789062 840.71875 541.378906 850.207031 531.699219 L 849.933594 530.015625 C 847.757812 517.375 843.109375 508.511719 838.707031 508.183594 C 832.34375 507.695312 826.582031 507.53125 821.390625 507.695312 Z M 819.511719 484.070312 C 820.574219 486.136719 821.308594 488.417969 821.632812 490.976562 C 827.179688 489.699219 833.730469 488.992188 841.453125 489.019531 C 834.382812 487.085938 827.015625 485.402344 819.511719 484.070312 Z M 776.394531 480.507812 C 773.023438 480.96875 769.597656 481.597656 766.121094 482.328125 C 766.582031 484.503906 766.90625 486.816406 767.042969 489.234375 C 767.125 490.566406 767.152344 491.925781 767.125 493.339844 C 770.035156 494.808594 772.699219 496.65625 775.0625 498.941406 C 778.164062 501.929688 780.691406 505.601562 782.539062 510.085938 C 787.160156 506.527344 793.277344 503.699219 801.214844 501.824219 C 804.207031 498.558594 808.230469 495.734375 813.503906 493.558594 C 813.394531 491.21875 812.851562 489.261719 811.980469 487.660156 C 810.597656 485.15625 808.257812 483.308594 805.214844 482.003906 C 795.699219 480.890625 786.019531 480.34375 776.394531 480.507812 Z M 775.308594 472.296875 C 782.675781 471.292969 789.71875 470.9375 795.96875 471.484375 C 800.15625 471.863281 803.988281 472.652344 807.359375 473.902344 C 826.664062 476.214844 845.285156 480.78125 861.734375 486.816406 L 864.886719 488.011719 C 864.5625 483.117188 863.636719 478.277344 862.140625 473.738281 C 856.757812 457.210938 843.679688 444.050781 822.722656 443.371094 C 786.507812 442.175781 770.46875 455.632812 766.09375 472.734375 C 769.136719 472.488281 772.207031 472.378906 775.308594 472.296875 Z M 756.496094 484.613281 C 752.117188 485.78125 747.824219 487.085938 743.664062 488.472656 C 748.230469 488.472656 752.636719 488.855469 756.792969 489.722656 C 756.632812 488.039062 756.523438 486.328125 756.496094 484.613281 Z M 692.253906 527.8125 C 690.324219 531.890625 688.992188 535.96875 688.203125 539.910156 C 693.070312 541.976562 697.636719 544.75 701.6875 548.367188 C 703.835938 548.390625 706.039062 548.3125 708.265625 548.121094 L 708.292969 548.121094 C 710.386719 543.335938 711.828125 538.441406 712.535156 533.902344 C 708.730469 532.40625 704.625 531.046875 700.300781 529.824219 C 697.71875 529.089844 695 528.410156 692.253906 527.8125 Z M 700.683594 514.574219 C 699.132812 516.476562 697.746094 518.378906 696.496094 520.28125 C 698.535156 520.769531 700.546875 521.289062 702.53125 521.832031 C 706.171875 522.835938 709.679688 523.980469 713.023438 525.203125 C 712.726562 520.796875 711.394531 517.644531 708.945312 516.828125 C 706.066406 515.878906 703.320312 515.117188 700.683594 514.574219 Z M 687.851562 518.460938 C 688.855469 516.773438 689.945312 515.117188 691.140625 513.429688 C 688.476562 513.375 685.972656 513.566406 683.691406 514 C 682.574219 515.089844 681.460938 516.175781 680.429688 517.238281 C 682.929688 517.589844 685.402344 518 687.851562 518.460938 Z M 680.265625 537.246094 C 681.082031 533.601562 682.25 529.90625 683.882812 526.179688 C 680.617188 525.609375 677.273438 525.148438 673.929688 524.769531 C 673.414062 528.65625 672.789062 532 672.082031 534.882812 L 672.542969 535.804688 C 675.128906 536.105469 677.710938 536.59375 680.265625 537.246094 Z M 688.910156 561.359375 C 689.699219 564.214844 690.757812 566.878906 692.035156 569.351562 C 695.273438 566.988281 698.152344 564.078125 700.683594 560.898438 L 701.199219 560.21875 C 700.21875 558.886719 699.160156 557.636719 698.046875 556.464844 C 694.402344 556.222656 690.894531 555.679688 687.605469 554.863281 C 687.878906 557.121094 688.3125 559.292969 688.910156 561.359375 Z M 684.832031 573.484375 C 683.226562 570.441406 681.894531 567.125 680.917969 563.617188 C 679.882812 559.917969 679.230469 555.976562 679.015625 551.898438 C 674.882812 549.96875 671.320312 547.46875 668.574219 544.449219 L 668.085938 545.265625 C 665.230469 549.699219 662.1875 551.492188 659.222656 551.164062 C 659.058594 558.640625 660.066406 566.632812 662.105469 574.546875 C 665.855469 575.605469 669.417969 576.039062 672.789062 576.011719 C 677.113281 575.960938 681.136719 575.035156 684.832031 573.484375 Z M 701.578125 581.316406 C 704.109375 583.328125 706.824219 584.769531 709.542969 585.554688 L 710.089844 585.394531 C 709.382812 578.625 707.832031 572.804688 705.628906 567.914062 C 702.9375 571.066406 699.894531 573.921875 696.550781 576.339844 C 698.097656 578.214844 699.8125 579.902344 701.578125 581.316406 Z M 696.523438 587.839844 L 696.46875 587.785156 C 693.914062 585.773438 691.519531 583.328125 689.34375 580.527344 C 684.398438 582.835938 678.878906 584.167969 672.871094 584.25 L 672.246094 584.25 C 673.742188 584.875 675.316406 585.421875 676.949219 585.882812 C 683.039062 587.621094 689.78125 588.300781 696.523438 587.839844 Z M 710.523438 594.253906 L 709.570312 594.09375 C 697.9375 597.027344 685.402344 596.945312 674.691406 593.902344 C 672.433594 593.25 670.261719 592.488281 668.167969 591.5625 C 672.707031 601.351562 678.878906 610.269531 686.382812 617.09375 C 700.492188 610.921875 710.332031 602.277344 710.523438 594.253906 Z M 734.039062 562.636719 C 735.046875 558.234375 735.726562 554.15625 736.132812 550.402344 C 735.808594 549.832031 735.425781 549.289062 735.046875 548.71875 C 728.304688 552.28125 721.042969 554.5625 713.8125 555.734375 C 712.996094 557.28125 712.128906 558.804688 711.203125 560.300781 C 714.546875 566.308594 716.964844 573.566406 718.082031 582.265625 C 721.914062 580.390625 725.421875 578.027344 728.464844 575.199219 C 729.226562 574.492188 729.960938 573.785156 730.613281 573.078125 C 731.945312 570.140625 733.113281 566.6875 734.039062 562.636719 Z M 744.832031 542.304688 C 744.859375 544.261719 744.777344 546.300781 744.640625 548.417969 C 748.9375 557.199219 747.414062 567.152344 737.519531 577.890625 C 733.089844 586.832031 727 591.835938 720.390625 593.710938 C 719.875 593.847656 719.359375 593.984375 718.84375 594.09375 C 718.816406 604.449219 708.621094 615.082031 693.695312 622.71875 C 698.261719 625.683594 703.210938 627.886719 708.511719 629.136719 C 718.378906 627.070312 728.085938 623.289062 736.949219 617.824219 C 756.605469 605.78125 772.207031 585.527344 776.914062 557.527344 C 776.476562 556.628906 776.070312 555.734375 775.660156 554.835938 C 772.34375 547.25 770.496094 539.421875 770.957031 532.109375 C 771.039062 530.832031 771.175781 529.605469 771.394531 528.355469 C 770.660156 527.296875 769.925781 526.234375 769.21875 525.121094 C 767.097656 521.777344 765.167969 518.1875 763.480469 514.382812 L 763.347656 514.789062 C 759.703125 526.617188 753.042969 535.695312 744.832031 542.304688 Z M 726.5625 516.910156 C 723.546875 514.382812 719.875 512.589844 715.769531 511.417969 C 719.710938 514.953125 721.535156 521.207031 721.34375 528.65625 C 727.214844 531.402344 732.300781 534.554688 736.324219 538.035156 C 735.480469 528.273438 731.945312 521.398438 726.5625 516.910156 Z M 713.1875 502.367188 C 720.335938 503.617188 726.726562 506.28125 731.863281 510.550781 C 737.820312 515.523438 742.03125 522.566406 743.855469 532 C 748.9375 526.804688 752.988281 520.335938 755.460938 512.398438 C 756.929688 507.695312 757.882812 503.34375 758.398438 499.320312 L 758.234375 498.667969 C 753.640625 497.28125 748.476562 496.738281 743.011719 496.792969 C 734.066406 496.875 724.359375 498.613281 715.117188 501.117188 C 714.4375 501.523438 713.785156 501.957031 713.1875 502.367188 Z M 675.425781 505.847656 C 677.710938 505.167969 679.992188 504.566406 682.25 504.050781 C 701.90625 486.734375 727.132812 477.4375 753.832031 473.902344 C 753.042969 472.707031 752.171875 471.589844 751.195312 470.53125 C 746.707031 465.609375 740.429688 462.128906 732.980469 459.820312 C 722.457031 456.558594 709.679688 455.6875 696.304688 456.476562 C 680.78125 457.398438 670.152344 463.355469 663.136719 471.753906 C 670.832031 477.464844 675.808594 486.300781 675.617188 498.640625 C 675.5625 501.171875 675.507812 503.5625 675.425781 505.847656 Z M 644.976562 528.4375 C 636.605469 533.46875 628.800781 539.285156 622.167969 545.566406 L 623.335938 546.898438 C 628.613281 543.035156 635.789062 539.773438 643.890625 537.707031 C 645.058594 537.410156 646.253906 537.136719 647.453125 536.894531 L 646.90625 535.34375 C 646.171875 533.222656 645.519531 530.910156 644.976562 528.4375 Z M 653.839844 523.515625 L 652.5625 524.195312 C 653.023438 526.699219 653.59375 529.035156 654.246094 531.15625 C 655.171875 528.492188 656.285156 525.9375 657.59375 523.597656 Z M 651.882812 515.226562 C 656.859375 512.722656 661.941406 510.523438 667.027344 508.644531 C 667.160156 505.519531 667.269531 502.175781 667.324219 498.558594 C 667.460938 489.535156 663.925781 483.007812 658.40625 478.6875 C 655.988281 483.0625 654.246094 487.820312 653.105469 492.714844 C 651.339844 500.246094 650.929688 508.046875 651.421875 515.226562 Z M 616.894531 539.394531 C 622.683594 533.929688 629.210938 528.84375 636.195312 524.277344 C 626.4375 525.230469 617.328125 527.105469 609.582031 529.960938 C 612.054688 533.304688 614.5 536.457031 616.894531 539.394531 Z M 600.828125 582.703125 C 600.664062 584.984375 598.679688 586.699219 596.394531 586.535156 C 594.113281 586.371094 592.398438 584.386719 592.535156 582.101562 C 593.460938 569.488281 600.5 556.765625 611.050781 545.265625 C 608.03125 541.625 604.960938 537.652344 601.832031 533.386719 C 591.800781 538.824219 585.519531 546.625 585.546875 557.144531 C 585.683594 594.28125 601.507812 613.339844 621.789062 621.007812 C 628.828125 623.671875 636.441406 625.003906 644.160156 625.300781 C 626.191406 612.632812 614.011719 591.265625 614.121094 560.789062 C 614.121094 558.015625 615.289062 555.214844 617.328125 552.550781 L 616.351562 551.464844 C 607.460938 561.359375 601.589844 572.125 600.828125 582.703125 Z M 756.167969 943.925781 C 754.753906 945.71875 752.144531 946.046875 750.351562 944.632812 C 748.558594 943.21875 748.230469 940.609375 749.644531 938.8125 C 757.445312 928.78125 764.625 920.542969 770.929688 913.3125 C 778.761719 904.316406 785.230469 896.894531 789.199219 890.394531 C 796.59375 878.296875 794.828125 868.457031 775.824219 853.613281 C 772.535156 859.050781 768.757812 863.046875 764.894531 865.003906 C 749.128906 872.996094 739.097656 867.257812 734.472656 858.097656 C 732.597656 854.402344 731.703125 850.105469 731.753906 846 C 731.808594 841.785156 732.816406 837.679688 734.800781 834.445312 C 738.933594 827.648438 746.574219 824.550781 757.175781 831.019531 C 763.019531 834.582031 768.210938 837.925781 772.808594 841.105469 C 775.769531 833.847656 777.972656 824.984375 778.789062 815.550781 C 779.902344 802.367188 778.246094 788.148438 771.964844 775.777344 C 767.425781 766.804688 760.410156 758.757812 750.242188 752.722656 C 719.03125 734.210938 678.796875 735.214844 642.3125 736.113281 C 631.65625 736.386719 621.324219 736.628906 611.539062 736.414062 C 574.726562 735.542969 546.210938 728.011719 540.308594 690.332031 C 534.140625 690.523438 526.933594 690.359375 518.5625 689.707031 C 511.195312 689.136719 504.535156 687.230469 498.523438 684.160156 C 481.152344 675.324219 469.515625 657.109375 462.75 635.171875 C 456.113281 613.722656 454.101562 588.65625 455.871094 565.464844 C 457.472656 544.53125 462.148438 525.039062 469.300781 510.984375 L 472.507812 504.675781 C 505.050781 440.488281 552.84375 346.179688 649.382812 370.921875 C 658.246094 373.203125 665.773438 375.894531 672.136719 378.859375 C 678.851562 369.804688 691.875 363.933594 708.023438 360.398438 C 726.945312 356.265625 750.460938 355.261719 772.808594 355.996094 C 802.875 357 831.039062 361.214844 843.246094 365.292969 L 858.960938 370.539062 C 949.789062 400.90625 951.394531 401.421875 1026.398438 474.121094 C 1037.601562 484.964844 1044.832031 507.722656 1045.511719 530.125 C 1045.867188 541.8125 1044.480469 553.476562 1040.945312 563.398438 C 1039.722656 566.851562 1038.226562 570.113281 1036.457031 573.105469 C 1039.394531 582.429688 1041.214844 595.777344 1041.214844 614.375 C 1041.214844 705.472656 983.011719 715.234375 911.78125 727.167969 C 901.425781 728.910156 890.769531 730.703125 879.839844 732.824219 L 879.269531 732.90625 C 876.222656 733.203125 862.984375 733.9375 849.226562 734.617188 C 833.703125 735.378906 817.5 736.085938 814.375 736.085938 C 812.089844 736.085938 810.214844 734.238281 810.214844 731.925781 C 810.214844 729.644531 812.0625 727.765625 814.375 727.765625 C 817.664062 727.765625 833.648438 727.058594 848.820312 726.324219 C 863.175781 725.621094 876.792969 724.886719 878.179688 724.695312 L 878.234375 724.695312 C 889.054688 722.574219 899.875 720.78125 910.394531 719.011719 C 977.816406 707.703125 1032.898438 698.488281 1032.898438 614.402344 C 1032.898438 599.855469 1031.945312 589.035156 1030.34375 581.152344 C 1028.058594 583.488281 1025.476562 585.472656 1022.59375 587.078125 C 1015.117188 591.238281 1005.792969 592.625 994.429688 590.042969 L 994.183594 589.988281 C 989.808594 588.871094 988.558594 585.175781 989.671875 580.28125 L 989.671875 580.253906 C 990.730469 575.632812 994.457031 569.164062 999.429688 563.941406 C 1004.570312 558.503906 1011.175781 554.238281 1017.835938 554.238281 C 1023.027344 554.238281 1028.058594 556.765625 1032.109375 563.289062 C 1032.460938 562.449219 1032.789062 561.578125 1033.113281 560.679688 C 1036.296875 551.734375 1037.546875 541.105469 1037.21875 530.394531 C 1036.59375 509.976562 1030.316406 489.535156 1020.609375 480.101562 C 946.960938 408.738281 945.414062 408.191406 856.324219 378.425781 L 840.609375 373.175781 C 829 369.289062 801.816406 365.265625 772.535156 364.285156 C 750.8125 363.582031 728.03125 364.558594 709.761719 368.527344 C 696.113281 371.519531 685.160156 376.085938 679.558594 382.773438 C 692.390625 390.332031 699.078125 399.113281 701.742188 407.242188 C 704.949219 417.082031 702.394531 426.109375 697.582031 431.382812 C 692.117188 437.390625 683.960938 438.914062 677.136719 432.714844 C 671.15625 427.25 666.453125 414.988281 667.1875 392.941406 C 667.269531 390.578125 667.652344 388.320312 668.332031 386.199219 C 662.511719 383.535156 655.550781 381.0625 647.316406 378.941406 C 557.21875 355.832031 511.222656 446.605469 479.902344 508.402344 L 476.695312 514.734375 C 470.035156 527.839844 465.65625 546.21875 464.132812 566.0625 C 462.449219 588.328125 464.351562 612.308594 470.632812 632.722656 C 476.777344 652.625 487.078125 669.015625 502.25 676.738281 C 507.304688 679.320312 512.933594 680.925781 519.132812 681.414062 C 527.097656 682.011719 533.8125 682.285156 539.386719 682.285156 C 539.167969 678.941406 539.085938 675.378906 539.167969 671.601562 C 539.386719 662.546875 544.960938 659.230469 551.808594 659.394531 L 551.863281 659.394531 C 556.484375 659.53125 561.679688 661.515625 565.621094 664.367188 C 570.050781 667.578125 573.152344 672.035156 572.796875 676.65625 C 572.363281 682.449219 566.054688 687.9375 548.710938 689.761719 C 554.554688 721.023438 579.539062 727.359375 611.648438 728.121094 C 621.242188 728.335938 631.492188 728.09375 642.042969 727.820312 C 679.640625 726.871094 721.152344 725.835938 754.375 745.574219 C 766.039062 752.480469 774.058594 761.722656 779.277344 772.054688 C 786.320312 785.945312 788.195312 801.714844 786.972656 816.257812 C 786.019531 827.324219 783.273438 837.761719 779.601562 846.109375 C 804.507812 864.976562 806.492188 877.835938 796.1875 894.71875 C 791.808594 901.894531 785.175781 909.507812 777.101562 918.777344 C 770.824219 926.089844 763.5625 934.4375 756.167969 943.925781 Z M 756.167969 943.925781 " fill-opacity="1" fill-rule="nonzero"/></svg>