<svg xmlns="http://www.w3.org/2000/svg" xmlns:xlink="http://www.w3.org/1999/xlink" width="2000" zoomAndPan="magnify" viewBox="0 0 1500 1499.999933" height="2000" preserveAspectRatio="xMidYMid meet" version="1.0"><defs><g/><clipPath id="a9f419186b"><path d="M 472 0.921875 L 1236 0.921875 L 1236 672 L 472 672 Z M 472 0.921875 " clip-rule="nonzero"/></clipPath><clipPath id="79b04e8952"><rect x="0" width="764" y="0" height="672"/></clipPath><clipPath id="45535ce444"><path d="M 1238.753906 509.832031 L 1301 509.832031 L 1301 644.769531 L 1238.753906 644.769531 Z M 1238.753906 509.832031 " clip-rule="nonzero"/></clipPath><clipPath id="609afb584b"><path d="M 0.753906 0.832031 L 63 0.832031 L 63 135.769531 L 0.753906 135.769531 Z M 0.753906 0.832031 " clip-rule="nonzero"/></clipPath><clipPath id="09daaa6681"><rect x="0" width="63" y="0" height="136"/></clipPath><clipPath id="aae75655b5"><path d="M 503 658 L 956 658 L 956 715.160156 L 503 715.160156 Z M 503 658 " clip-rule="nonzero"/></clipPath><clipPath id="bc887043ed"><rect x="0" width="453" y="0" height="58"/></clipPath><clipPath id="36d6991d43"><path d="M 0.441406 26 L 474 26 L 474 697 L 0.441406 697 Z M 0.441406 26 " clip-rule="nonzero"/></clipPath><clipPath id="a457c9295d"><rect x="0" width="474" y="0" height="671"/></clipPath><clipPath id="1be0731cf1"><path d="M 503.917969 620.265625 L 1300.996094 620.265625 L 1300.996094 645.363281 L 503.917969 645.363281 Z M 503.917969 620.265625 " clip-rule="nonzero"/></clipPath><clipPath id="cf4774f4e0"><path d="M 0.917969 0.265625 L 797.996094 0.265625 L 797.996094 25.363281 L 0.917969 25.363281 Z M 0.917969 0.265625 " clip-rule="nonzero"/></clipPath><clipPath id="a9334fd6e4"><rect x="0" width="798" y="0" height="26"/></clipPath><clipPath id="a27fd996df"><rect x="0" width="1301" y="0" height="716"/></clipPath></defs><g transform="matrix(1, 0, 0, 1, 199, 367)"><g clip-path="url(#a27fd996df)"><g clip-path="url(#a9f419186b)"><g transform="matrix(1, 0, 0, 1, 472, 0.000000000000113687)"><g clip-path="url(#79b04e8952)"><g fill="#1e1e1e" fill-opacity="1"><g transform="translate(0.197358, 522.968416)"><g><path d="M 93.765625 -248.96875 L 93.765625 -223.640625 C 106.585938 -234.273438 118.78125 -242.25 130.34375 -247.5625 C 141.90625 -252.875 154.253906 -255.53125 167.390625 -255.53125 C 183.015625 -255.53125 197.3125 -252.09375 210.28125 -245.21875 C 223.25 -238.34375 233.5625 -228.414062 241.21875 -215.4375 C 248.882812 -202.46875 252.71875 -187.390625 252.71875 -170.203125 L 252.71875 0 L 190.359375 0 L 190.359375 -117.6875 C 190.359375 -136.4375 189.421875 -151.4375 187.546875 -162.6875 C 185.671875 -173.945312 181.679688 -182.703125 175.578125 -188.953125 C 169.484375 -195.203125 160.34375 -198.328125 148.15625 -198.328125 C 137.84375 -198.328125 128.546875 -195.4375 120.265625 -189.65625 C 111.984375 -183.875 105.492188 -175.351562 100.796875 -164.09375 C 96.109375 -152.84375 93.765625 -139.09375 93.765625 -122.84375 L 93.765625 0 L 31.40625 0 L 31.40625 -248.96875 Z M 93.765625 -248.96875 "/></g></g></g><g fill="#1e1e1e" fill-opacity="1"><g transform="translate(258.064555, 522.968416)"><g><path d="M 38.921875 -195.046875 L 7.03125 -195.046875 L 7.03125 -248.96875 L 38.921875 -248.96875 L 38.921875 -340.859375 L 101.28125 -340.859375 L 101.28125 -248.96875 L 138.3125 -248.96875 L 138.3125 -195.046875 L 101.28125 -195.046875 L 101.28125 0 L 38.921875 0 Z M 38.921875 -195.046875 "/></g></g></g><g fill="#1e1e1e" fill-opacity="1"><g transform="translate(375.276149, 522.968416)"><g><path d="M 62.828125 -270.53125 C 55.328125 -270.53125 48.523438 -272.484375 42.421875 -276.390625 C 36.328125 -280.296875 31.5625 -285.609375 28.125 -292.328125 C 24.6875 -299.054688 22.96875 -306.171875 22.96875 -313.671875 C 22.96875 -320.546875 24.765625 -326.953125 28.359375 -332.890625 C 31.960938 -338.828125 36.8125 -343.4375 42.90625 -346.71875 C 49 -350 55.640625 -351.640625 62.828125 -351.640625 C 70.328125 -351.640625 77.046875 -349.765625 82.984375 -346.015625 C 88.921875 -342.265625 93.6875 -337.265625 97.28125 -331.015625 C 100.882812 -324.765625 102.6875 -317.890625 102.6875 -310.390625 C 102.6875 -303.191406 100.882812 -296.546875 97.28125 -290.453125 C 93.6875 -284.359375 88.84375 -279.515625 82.75 -275.921875 C 76.65625 -272.328125 70.015625 -270.53125 62.828125 -270.53125 Z M 31.875 -248.96875 L 94.234375 -248.96875 L 94.234375 0 L 31.875 0 Z M 31.875 -248.96875 "/></g></g></g><g fill="#1e1e1e" fill-opacity="1"><g transform="translate(477.484482, 522.968416)"><g><path d="M 149.5625 6.5625 C 125.1875 6.5625 102.992188 0.703125 82.984375 -11.015625 C 62.984375 -22.734375 47.273438 -38.671875 35.859375 -58.828125 C 24.453125 -78.992188 18.75 -100.957031 18.75 -124.71875 C 18.75 -148.78125 24.6875 -170.8125 36.5625 -190.8125 C 48.445312 -210.820312 64.390625 -226.609375 84.390625 -238.171875 C 104.398438 -249.742188 126.125 -255.53125 149.5625 -255.53125 C 173.007812 -255.53125 194.734375 -249.742188 214.734375 -238.171875 C 234.742188 -226.609375 250.6875 -210.820312 262.5625 -190.8125 C 274.4375 -170.8125 280.375 -148.78125 280.375 -124.71875 C 280.375 -100.957031 274.671875 -78.992188 263.265625 -58.828125 C 251.859375 -38.671875 236.148438 -22.734375 216.140625 -11.015625 C 196.140625 0.703125 173.945312 6.5625 149.5625 6.5625 Z M 149.5625 -52.515625 C 162.070312 -52.515625 173.5625 -55.484375 184.03125 -61.421875 C 194.5 -67.359375 202.703125 -75.796875 208.640625 -86.734375 C 214.578125 -97.679688 217.546875 -110.1875 217.546875 -124.25 C 217.546875 -138.3125 214.65625 -150.8125 208.875 -161.75 C 203.09375 -172.695312 195.046875 -181.21875 184.734375 -187.3125 C 174.421875 -193.40625 162.695312 -196.453125 149.5625 -196.453125 C 136.4375 -196.453125 124.710938 -193.40625 114.390625 -187.3125 C 104.078125 -181.21875 96.03125 -172.695312 90.25 -161.75 C 84.46875 -150.8125 81.578125 -138.3125 81.578125 -124.25 C 81.578125 -110.1875 84.546875 -97.679688 90.484375 -86.734375 C 96.421875 -75.796875 104.625 -67.359375 115.09375 -61.421875 C 125.570312 -55.484375 137.0625 -52.515625 149.5625 -52.515625 Z M 149.5625 -52.515625 "/></g></g></g></g></g></g><g clip-path="url(#45535ce444)"><g transform="matrix(1, 0, 0, 1, 1238, 509)"><g clip-path="url(#09daaa6681)"><g clip-path="url(#609afb584b)"><path fill="#1e1e1e" d="M 0.753906 0.832031 L 63 0.832031 L 63 135.78125 L 0.753906 135.78125 Z M 0.753906 0.832031 " fill-opacity="1" fill-rule="nonzero"/></g></g></g></g><g clip-path="url(#aae75655b5)"><g transform="matrix(1, 0, 0, 1, 503, 658)"><g clip-path="url(#bc887043ed)"><g fill="#1e1e1e" fill-opacity="1"><g transform="translate(0.921242, 43.745664)"><g><path d="M 12.96875 0.515625 C 10.9375 0.515625 9.085938 0.0078125 7.421875 -1 C 5.765625 -2.019531 4.453125 -3.390625 3.484375 -5.109375 C 2.523438 -6.835938 2.046875 -8.707031 2.046875 -10.71875 C 2.046875 -12.726562 2.535156 -14.582031 3.515625 -16.28125 C 4.492188 -17.976562 5.828125 -19.335938 7.515625 -20.359375 C 9.203125 -21.378906 11.046875 -21.890625 13.046875 -21.890625 C 14.785156 -21.890625 16.378906 -21.515625 17.828125 -20.765625 C 19.273438 -20.015625 20.519531 -18.898438 21.5625 -17.421875 L 21.5625 -29.5625 L 24.296875 -29.5625 L 24.296875 0 L 21.5625 0 L 21.5625 -3.65625 C 20.414062 -2.257812 19.117188 -1.210938 17.671875 -0.515625 C 16.222656 0.171875 14.65625 0.515625 12.96875 0.515625 Z M 13.25 -1.96875 C 14.71875 -1.96875 16.101562 -2.320312 17.40625 -3.03125 C 18.707031 -3.738281 19.75 -4.738281 20.53125 -6.03125 C 21.320312 -7.332031 21.71875 -8.84375 21.71875 -10.5625 C 21.71875 -12.195312 21.347656 -13.671875 20.609375 -14.984375 C 19.878906 -16.296875 18.867188 -17.332031 17.578125 -18.09375 C 16.296875 -18.851562 14.867188 -19.234375 13.296875 -19.234375 C 11.710938 -19.234375 10.269531 -18.835938 8.96875 -18.046875 C 7.675781 -17.253906 6.664062 -16.203125 5.9375 -14.890625 C 5.21875 -13.585938 4.859375 -12.171875 4.859375 -10.640625 C 4.859375 -9.117188 5.222656 -7.691406 5.953125 -6.359375 C 6.691406 -5.035156 7.703125 -3.972656 8.984375 -3.171875 C 10.273438 -2.367188 11.695312 -1.96875 13.25 -1.96875 Z M 13.25 -1.96875 "/></g></g></g><g fill="#1e1e1e" fill-opacity="1"><g transform="translate(28.430042, 43.745664)"><g><path d="M 5.9375 -21.328125 L 5.9375 -18.234375 C 6.769531 -19.429688 7.632812 -20.335938 8.53125 -20.953125 C 9.425781 -21.578125 10.394531 -21.890625 11.4375 -21.890625 C 11.945312 -21.890625 12.394531 -21.828125 12.78125 -21.703125 C 13.175781 -21.585938 13.546875 -21.40625 13.890625 -21.15625 L 12.453125 -18.828125 C 11.910156 -19.097656 11.425781 -19.234375 11 -19.234375 C 10.039062 -19.234375 9.175781 -18.878906 8.40625 -18.171875 C 7.644531 -17.460938 7.039062 -16.460938 6.59375 -15.171875 C 6.15625 -13.890625 5.9375 -12.421875 5.9375 -10.765625 L 5.9375 0 L 3.21875 0 L 3.21875 -21.328125 Z M 5.9375 -21.328125 "/></g></g></g><g fill="#1e1e1e" fill-opacity="1"><g transform="translate(41.602157, 43.745664)"><g><path d="M 13.171875 0.515625 C 10.867188 0.515625 8.878906 0.015625 7.203125 -0.984375 C 5.535156 -1.984375 4.257812 -3.332031 3.375 -5.03125 C 2.488281 -6.738281 2.046875 -8.59375 2.046875 -10.59375 C 2.046875 -12.550781 2.5 -14.394531 3.40625 -16.125 C 4.320312 -17.851562 5.613281 -19.242188 7.28125 -20.296875 C 8.957031 -21.359375 10.867188 -21.890625 13.015625 -21.890625 C 15.078125 -21.890625 16.945312 -21.40625 18.625 -20.4375 C 20.3125 -19.476562 21.632812 -18.140625 22.59375 -16.421875 C 23.5625 -14.710938 24.046875 -12.785156 24.046875 -10.640625 L 24.046875 -10.4375 L 4.859375 -10.4375 C 4.910156 -8.800781 5.289062 -7.351562 6 -6.09375 C 6.707031 -4.84375 7.675781 -3.867188 8.90625 -3.171875 C 10.144531 -2.472656 11.566406 -2.125 13.171875 -2.125 C 15.066406 -2.125 16.617188 -2.566406 17.828125 -3.453125 C 19.035156 -4.335938 20.109375 -5.539062 21.046875 -7.0625 L 23.328125 -5.859375 C 22.285156 -3.847656 20.898438 -2.28125 19.171875 -1.15625 C 17.441406 -0.0390625 15.441406 0.515625 13.171875 0.515625 Z M 21.046875 -12.84375 C 20.503906 -14.957031 19.515625 -16.550781 18.078125 -17.625 C 16.648438 -18.695312 14.972656 -19.234375 13.046875 -19.234375 C 11.097656 -19.234375 9.445312 -18.703125 8.09375 -17.640625 C 6.738281 -16.585938 5.753906 -14.988281 5.140625 -12.84375 Z M 21.046875 -12.84375 "/></g></g></g><g fill="#1e1e1e" fill-opacity="1"><g transform="translate(67.705363, 43.745664)"><g><path d="M 12.96875 0.515625 C 10.9375 0.515625 9.085938 0.0078125 7.421875 -1 C 5.765625 -2.019531 4.453125 -3.390625 3.484375 -5.109375 C 2.523438 -6.835938 2.046875 -8.707031 2.046875 -10.71875 C 2.046875 -12.726562 2.535156 -14.582031 3.515625 -16.28125 C 4.492188 -17.976562 5.828125 -19.335938 7.515625 -20.359375 C 9.203125 -21.378906 11.046875 -21.890625 13.046875 -21.890625 C 14.785156 -21.890625 16.378906 -21.515625 17.828125 -20.765625 C 19.273438 -20.015625 20.519531 -18.898438 21.5625 -17.421875 L 21.5625 -21.328125 L 24.25 -21.328125 L 24.25 0 L 21.5625 0 L 21.5625 -3.65625 C 20.414062 -2.257812 19.117188 -1.210938 17.671875 -0.515625 C 16.222656 0.171875 14.65625 0.515625 12.96875 0.515625 Z M 13.25 -1.96875 C 14.71875 -1.96875 16.109375 -2.320312 17.421875 -3.03125 C 18.734375 -3.738281 19.785156 -4.738281 20.578125 -6.03125 C 21.367188 -7.332031 21.765625 -8.84375 21.765625 -10.5625 C 21.765625 -12.195312 21.390625 -13.671875 20.640625 -14.984375 C 19.890625 -16.296875 18.867188 -17.332031 17.578125 -18.09375 C 16.296875 -18.851562 14.867188 -19.234375 13.296875 -19.234375 C 11.710938 -19.234375 10.269531 -18.835938 8.96875 -18.046875 C 7.675781 -17.253906 6.664062 -16.203125 5.9375 -14.890625 C 5.21875 -13.585938 4.859375 -12.171875 4.859375 -10.640625 C 4.859375 -9.117188 5.222656 -7.691406 5.953125 -6.359375 C 6.691406 -5.035156 7.703125 -3.972656 8.984375 -3.171875 C 10.273438 -2.367188 11.695312 -1.96875 13.25 -1.96875 Z M 13.25 -1.96875 "/></g></g></g><g fill="#1e1e1e" fill-opacity="1"><g transform="translate(95.173976, 43.745664)"><g><path d="M 5.9375 -21.328125 L 5.9375 -17.671875 C 6.90625 -19.054688 7.988281 -20.101562 9.1875 -20.8125 C 10.394531 -21.53125 11.75 -21.890625 13.25 -21.890625 C 14.882812 -21.890625 16.269531 -21.457031 17.40625 -20.59375 C 18.539062 -19.738281 19.40625 -18.457031 20 -16.75 C 20.9375 -18.4375 22.078125 -19.710938 23.421875 -20.578125 C 24.773438 -21.453125 26.242188 -21.890625 27.828125 -21.890625 C 29.296875 -21.890625 30.578125 -21.539062 31.671875 -20.84375 C 32.773438 -20.144531 33.617188 -19.097656 34.203125 -17.703125 C 34.796875 -16.316406 35.09375 -14.632812 35.09375 -12.65625 L 35.09375 0 L 32.359375 0 L 32.359375 -13.21875 C 32.359375 -15.082031 31.9375 -16.550781 31.09375 -17.625 C 30.257812 -18.695312 29 -19.234375 27.3125 -19.234375 C 25.96875 -19.234375 24.773438 -18.863281 23.734375 -18.125 C 22.691406 -17.394531 21.890625 -16.363281 21.328125 -15.03125 C 20.765625 -13.707031 20.484375 -12.191406 20.484375 -10.484375 L 20.484375 0 L 17.75 0 L 17.75 -11.84375 C 17.75 -14.3125 17.363281 -16.160156 16.59375 -17.390625 C 15.832031 -18.617188 14.546875 -19.234375 12.734375 -19.234375 C 11.335938 -19.234375 10.128906 -18.859375 9.109375 -18.109375 C 8.097656 -17.359375 7.316406 -16.289062 6.765625 -14.90625 C 6.210938 -13.53125 5.9375 -11.921875 5.9375 -10.078125 L 5.9375 0 L 3.21875 0 L 3.21875 -21.328125 Z M 5.9375 -21.328125 "/></g></g></g><g fill="#1e1e1e" fill-opacity="1"><g transform="translate(133.083891, 43.745664)"><g/></g></g><g fill="#1e1e1e" fill-opacity="1"><g transform="translate(144.207871, 43.745664)"><g><path d="M 30.3125 -21.328125 L 33.171875 -21.328125 L 23.9375 0 L 23.40625 0 L 16.625 -15.296875 L 9.796875 0 L 9.234375 0 L 0.15625 -21.328125 L 3.015625 -21.328125 L 9.515625 -5.859375 L 16.34375 -21.328125 L 16.828125 -21.328125 L 23.6875 -5.859375 Z M 30.3125 -21.328125 "/></g></g></g><g fill="#1e1e1e" fill-opacity="1"><g transform="translate(177.579863, 43.745664)"><g><path d="M 4.421875 -25.578125 C 3.804688 -25.578125 3.273438 -25.800781 2.828125 -26.25 C 2.390625 -26.707031 2.171875 -27.25 2.171875 -27.875 C 2.171875 -28.507812 2.390625 -29.039062 2.828125 -29.46875 C 3.273438 -29.90625 3.804688 -30.125 4.421875 -30.125 C 5.035156 -30.125 5.566406 -29.898438 6.015625 -29.453125 C 6.472656 -29.015625 6.703125 -28.488281 6.703125 -27.875 C 6.703125 -27.25 6.472656 -26.707031 6.015625 -26.25 C 5.566406 -25.800781 5.035156 -25.578125 4.421875 -25.578125 Z M 3.09375 -21.328125 L 5.828125 -21.328125 L 5.828125 0 L 3.09375 0 Z M 3.09375 -21.328125 "/></g></g></g><g fill="#1e1e1e" fill-opacity="1"><g transform="translate(186.454976, 43.745664)"><g><path d="M 5.5 -18.90625 L 1.734375 -18.90625 L 1.734375 -21.328125 L 5.5 -21.328125 L 5.5 -29.28125 L 8.234375 -29.28125 L 8.234375 -21.328125 L 12.609375 -21.328125 L 12.609375 -18.90625 L 8.234375 -18.90625 L 8.234375 0 L 5.5 0 Z M 5.5 -18.90625 "/></g></g></g><g fill="#1e1e1e" fill-opacity="1"><g transform="translate(200.068796, 43.745664)"><g><path d="M 5.9375 -29.5625 L 5.9375 -17.515625 C 7.0625 -18.953125 8.28125 -20.039062 9.59375 -20.78125 C 10.90625 -21.519531 12.351562 -21.890625 13.9375 -21.890625 C 15.488281 -21.890625 16.859375 -21.523438 18.046875 -20.796875 C 19.242188 -20.078125 20.171875 -18.992188 20.828125 -17.546875 C 21.484375 -16.097656 21.8125 -14.332031 21.8125 -12.25 L 21.8125 0 L 19.078125 0 L 19.078125 -11.609375 C 19.078125 -14.203125 18.632812 -16.144531 17.75 -17.4375 C 16.863281 -18.738281 15.414062 -19.390625 13.40625 -19.390625 C 11.96875 -19.390625 10.675781 -19 9.53125 -18.21875 C 8.394531 -17.445312 7.507812 -16.363281 6.875 -14.96875 C 6.25 -13.582031 5.9375 -11.992188 5.9375 -10.203125 L 5.9375 0 L 3.21875 0 L 3.21875 -29.5625 Z M 5.9375 -29.5625 "/></g></g></g><g fill="#1e1e1e" fill-opacity="1"><g transform="translate(224.686136, 43.745664)"><g><path d="M 13.171875 0.5625 C 11.085938 0.5625 9.191406 0.0625 7.484375 -0.9375 C 5.785156 -1.945312 4.453125 -3.304688 3.484375 -5.015625 C 2.523438 -6.734375 2.046875 -8.59375 2.046875 -10.59375 C 2.046875 -12.601562 2.523438 -14.476562 3.484375 -16.21875 C 4.453125 -17.957031 5.785156 -19.335938 7.484375 -20.359375 C 9.191406 -21.378906 11.085938 -21.890625 13.171875 -21.890625 C 15.253906 -21.890625 17.144531 -21.378906 18.84375 -20.359375 C 20.550781 -19.335938 21.882812 -17.957031 22.84375 -16.21875 C 23.8125 -14.476562 24.296875 -12.601562 24.296875 -10.59375 C 24.296875 -8.59375 23.8125 -6.734375 22.84375 -5.015625 C 21.882812 -3.304688 20.550781 -1.945312 18.84375 -0.9375 C 17.144531 0.0625 15.253906 0.5625 13.171875 0.5625 Z M 13.171875 -2.09375 C 14.722656 -2.09375 16.132812 -2.472656 17.40625 -3.234375 C 18.675781 -3.992188 19.671875 -5.019531 20.390625 -6.3125 C 21.117188 -7.613281 21.484375 -9.03125 21.484375 -10.5625 C 21.484375 -12.113281 21.109375 -13.550781 20.359375 -14.875 C 19.609375 -16.195312 18.597656 -17.253906 17.328125 -18.046875 C 16.054688 -18.835938 14.671875 -19.234375 13.171875 -19.234375 C 11.671875 -19.234375 10.285156 -18.835938 9.015625 -18.046875 C 7.742188 -17.253906 6.734375 -16.195312 5.984375 -14.875 C 5.234375 -13.550781 4.859375 -12.113281 4.859375 -10.5625 C 4.859375 -9.007812 5.21875 -7.585938 5.9375 -6.296875 C 6.664062 -5.015625 7.65625 -3.992188 8.90625 -3.234375 C 10.164062 -2.472656 11.585938 -2.09375 13.171875 -2.09375 Z M 13.171875 -2.09375 "/></g></g></g><g fill="#1e1e1e" fill-opacity="1"><g transform="translate(250.990178, 43.745664)"><g><path d="M 12.09375 0.515625 C 9.007812 0.515625 6.671875 -0.390625 5.078125 -2.203125 C 3.484375 -4.023438 2.6875 -6.71875 2.6875 -10.28125 L 2.6875 -21.328125 L 5.578125 -21.328125 L 5.578125 -9.15625 C 5.578125 -6.820312 6.148438 -5.066406 7.296875 -3.890625 C 8.453125 -2.710938 10.050781 -2.125 12.09375 -2.125 C 13.507812 -2.125 14.695312 -2.410156 15.65625 -2.984375 C 16.625 -3.566406 17.347656 -4.375 17.828125 -5.40625 C 18.304688 -6.4375 18.546875 -7.617188 18.546875 -8.953125 L 18.546875 -21.328125 L 21.4375 -21.328125 L 21.4375 -10.28125 C 21.4375 -6.695312 20.644531 -4 19.0625 -2.1875 C 17.488281 -0.382812 15.164062 0.515625 12.09375 0.515625 Z M 12.09375 0.515625 "/></g></g></g><g fill="#1e1e1e" fill-opacity="1"><g transform="translate(275.406733, 43.745664)"><g><path d="M 5.5 -18.90625 L 1.734375 -18.90625 L 1.734375 -21.328125 L 5.5 -21.328125 L 5.5 -29.28125 L 8.234375 -29.28125 L 8.234375 -21.328125 L 12.609375 -21.328125 L 12.609375 -18.90625 L 8.234375 -18.90625 L 8.234375 0 L 5.5 0 Z M 5.5 -18.90625 "/></g></g></g><g fill="#1e1e1e" fill-opacity="1"><g transform="translate(289.020553, 43.745664)"><g/></g></g><g fill="#1e1e1e" fill-opacity="1"><g transform="translate(300.144534, 43.745664)"><g><path d="M 14.421875 0.5625 C 10.960938 0.5625 8.132812 -0.9375 5.9375 -3.9375 L 5.9375 0 L 3.21875 0 L 3.21875 -29.5625 L 5.9375 -29.5625 L 5.9375 -17.671875 C 8.269531 -20.484375 11.125 -21.890625 14.5 -21.890625 C 16.53125 -21.890625 18.378906 -21.378906 20.046875 -20.359375 C 21.722656 -19.335938 23.039062 -17.960938 24 -16.234375 C 24.96875 -14.515625 25.453125 -12.648438 25.453125 -10.640625 C 25.453125 -8.660156 24.960938 -6.804688 23.984375 -5.078125 C 23.015625 -3.347656 21.6875 -1.972656 20 -0.953125 C 18.3125 0.0546875 16.453125 0.5625 14.421875 0.5625 Z M 14.21875 -2.09375 C 15.820312 -2.09375 17.265625 -2.484375 18.546875 -3.265625 C 19.835938 -4.054688 20.84375 -5.113281 21.5625 -6.4375 C 22.28125 -7.769531 22.640625 -9.195312 22.640625 -10.71875 C 22.640625 -12.25 22.265625 -13.675781 21.515625 -15 C 20.773438 -16.320312 19.757812 -17.382812 18.46875 -18.1875 C 17.1875 -18.988281 15.769531 -19.390625 14.21875 -19.390625 C 12.738281 -19.390625 11.347656 -19.039062 10.046875 -18.34375 C 8.753906 -17.65625 7.710938 -16.65625 6.921875 -15.34375 C 6.140625 -14.03125 5.75 -12.515625 5.75 -10.796875 C 5.75 -9.171875 6.113281 -7.691406 6.84375 -6.359375 C 7.582031 -5.035156 8.597656 -3.992188 9.890625 -3.234375 C 11.191406 -2.472656 12.632812 -2.09375 14.21875 -2.09375 Z M 14.21875 -2.09375 "/></g></g></g><g fill="#1e1e1e" fill-opacity="1"><g transform="translate(327.613146, 43.745664)"><g><path d="M 13.171875 0.5625 C 11.085938 0.5625 9.191406 0.0625 7.484375 -0.9375 C 5.785156 -1.945312 4.453125 -3.304688 3.484375 -5.015625 C 2.523438 -6.734375 2.046875 -8.59375 2.046875 -10.59375 C 2.046875 -12.601562 2.523438 -14.476562 3.484375 -16.21875 C 4.453125 -17.957031 5.785156 -19.335938 7.484375 -20.359375 C 9.191406 -21.378906 11.085938 -21.890625 13.171875 -21.890625 C 15.253906 -21.890625 17.144531 -21.378906 18.84375 -20.359375 C 20.550781 -19.335938 21.882812 -17.957031 22.84375 -16.21875 C 23.8125 -14.476562 24.296875 -12.601562 24.296875 -10.59375 C 24.296875 -8.59375 23.8125 -6.734375 22.84375 -5.015625 C 21.882812 -3.304688 20.550781 -1.945312 18.84375 -0.9375 C 17.144531 0.0625 15.253906 0.5625 13.171875 0.5625 Z M 13.171875 -2.09375 C 14.722656 -2.09375 16.132812 -2.472656 17.40625 -3.234375 C 18.675781 -3.992188 19.671875 -5.019531 20.390625 -6.3125 C 21.117188 -7.613281 21.484375 -9.03125 21.484375 -10.5625 C 21.484375 -12.113281 21.109375 -13.550781 20.359375 -14.875 C 19.609375 -16.195312 18.597656 -17.253906 17.328125 -18.046875 C 16.054688 -18.835938 14.671875 -19.234375 13.171875 -19.234375 C 11.671875 -19.234375 10.285156 -18.835938 9.015625 -18.046875 C 7.742188 -17.253906 6.734375 -16.195312 5.984375 -14.875 C 5.234375 -13.550781 4.859375 -12.113281 4.859375 -10.5625 C 4.859375 -9.007812 5.21875 -7.585938 5.9375 -6.296875 C 6.664062 -5.015625 7.65625 -3.992188 8.90625 -3.234375 C 10.164062 -2.472656 11.585938 -2.09375 13.171875 -2.09375 Z M 13.171875 -2.09375 "/></g></g></g><g fill="#1e1e1e" fill-opacity="1"><g transform="translate(353.917188, 43.745664)"><g><path d="M 5.9375 -21.328125 L 5.9375 -18.234375 C 6.769531 -19.429688 7.632812 -20.335938 8.53125 -20.953125 C 9.425781 -21.578125 10.394531 -21.890625 11.4375 -21.890625 C 11.945312 -21.890625 12.394531 -21.828125 12.78125 -21.703125 C 13.175781 -21.585938 13.546875 -21.40625 13.890625 -21.15625 L 12.453125 -18.828125 C 11.910156 -19.097656 11.425781 -19.234375 11 -19.234375 C 10.039062 -19.234375 9.175781 -18.878906 8.40625 -18.171875 C 7.644531 -17.460938 7.039062 -16.460938 6.59375 -15.171875 C 6.15625 -13.890625 5.9375 -12.421875 5.9375 -10.765625 L 5.9375 0 L 3.21875 0 L 3.21875 -21.328125 Z M 5.9375 -21.328125 "/></g></g></g><g fill="#1e1e1e" fill-opacity="1"><g transform="translate(367.089303, 43.745664)"><g><path d="M 12.96875 0.515625 C 10.9375 0.515625 9.085938 0.0078125 7.421875 -1 C 5.765625 -2.019531 4.453125 -3.390625 3.484375 -5.109375 C 2.523438 -6.835938 2.046875 -8.707031 2.046875 -10.71875 C 2.046875 -12.726562 2.535156 -14.582031 3.515625 -16.28125 C 4.492188 -17.976562 5.828125 -19.335938 7.515625 -20.359375 C 9.203125 -21.378906 11.046875 -21.890625 13.046875 -21.890625 C 14.785156 -21.890625 16.378906 -21.515625 17.828125 -20.765625 C 19.273438 -20.015625 20.519531 -18.898438 21.5625 -17.421875 L 21.5625 -29.5625 L 24.296875 -29.5625 L 24.296875 0 L 21.5625 0 L 21.5625 -3.65625 C 20.414062 -2.257812 19.117188 -1.210938 17.671875 -0.515625 C 16.222656 0.171875 14.65625 0.515625 12.96875 0.515625 Z M 13.25 -1.96875 C 14.71875 -1.96875 16.101562 -2.320312 17.40625 -3.03125 C 18.707031 -3.738281 19.75 -4.738281 20.53125 -6.03125 C 21.320312 -7.332031 21.71875 -8.84375 21.71875 -10.5625 C 21.71875 -12.195312 21.347656 -13.671875 20.609375 -14.984375 C 19.878906 -16.296875 18.867188 -17.332031 17.578125 -18.09375 C 16.296875 -18.851562 14.867188 -19.234375 13.296875 -19.234375 C 11.710938 -19.234375 10.269531 -18.835938 8.96875 -18.046875 C 7.675781 -17.253906 6.664062 -16.203125 5.9375 -14.890625 C 5.21875 -13.585938 4.859375 -12.171875 4.859375 -10.640625 C 4.859375 -9.117188 5.222656 -7.691406 5.953125 -6.359375 C 6.691406 -5.035156 7.703125 -3.972656 8.984375 -3.171875 C 10.273438 -2.367188 11.695312 -1.96875 13.25 -1.96875 Z M 13.25 -1.96875 "/></g></g></g><g fill="#1e1e1e" fill-opacity="1"><g transform="translate(394.598103, 43.745664)"><g><path d="M 13.171875 0.515625 C 10.867188 0.515625 8.878906 0.015625 7.203125 -0.984375 C 5.535156 -1.984375 4.257812 -3.332031 3.375 -5.03125 C 2.488281 -6.738281 2.046875 -8.59375 2.046875 -10.59375 C 2.046875 -12.550781 2.5 -14.394531 3.40625 -16.125 C 4.320312 -17.851562 5.613281 -19.242188 7.28125 -20.296875 C 8.957031 -21.359375 10.867188 -21.890625 13.015625 -21.890625 C 15.078125 -21.890625 16.945312 -21.40625 18.625 -20.4375 C 20.3125 -19.476562 21.632812 -18.140625 22.59375 -16.421875 C 23.5625 -14.710938 24.046875 -12.785156 24.046875 -10.640625 L 24.046875 -10.4375 L 4.859375 -10.4375 C 4.910156 -8.800781 5.289062 -7.351562 6 -6.09375 C 6.707031 -4.84375 7.675781 -3.867188 8.90625 -3.171875 C 10.144531 -2.472656 11.566406 -2.125 13.171875 -2.125 C 15.066406 -2.125 16.617188 -2.566406 17.828125 -3.453125 C 19.035156 -4.335938 20.109375 -5.539062 21.046875 -7.0625 L 23.328125 -5.859375 C 22.285156 -3.847656 20.898438 -2.28125 19.171875 -1.15625 C 17.441406 -0.0390625 15.441406 0.515625 13.171875 0.515625 Z M 21.046875 -12.84375 C 20.503906 -14.957031 19.515625 -16.550781 18.078125 -17.625 C 16.648438 -18.695312 14.972656 -19.234375 13.046875 -19.234375 C 11.097656 -19.234375 9.445312 -18.703125 8.09375 -17.640625 C 6.738281 -16.585938 5.753906 -14.988281 5.140625 -12.84375 Z M 21.046875 -12.84375 "/></g></g></g><g fill="#1e1e1e" fill-opacity="1"><g transform="translate(420.701309, 43.745664)"><g><path d="M 5.9375 -21.328125 L 5.9375 -18.234375 C 6.769531 -19.429688 7.632812 -20.335938 8.53125 -20.953125 C 9.425781 -21.578125 10.394531 -21.890625 11.4375 -21.890625 C 11.945312 -21.890625 12.394531 -21.828125 12.78125 -21.703125 C 13.175781 -21.585938 13.546875 -21.40625 13.890625 -21.15625 L 12.453125 -18.828125 C 11.910156 -19.097656 11.425781 -19.234375 11 -19.234375 C 10.039062 -19.234375 9.175781 -18.878906 8.40625 -18.171875 C 7.644531 -17.460938 7.039062 -16.460938 6.59375 -15.171875 C 6.15625 -13.890625 5.9375 -12.421875 5.9375 -10.765625 L 5.9375 0 L 3.21875 0 L 3.21875 -21.328125 Z M 5.9375 -21.328125 "/></g></g></g><g fill="#1e1e1e" fill-opacity="1"><g transform="translate(433.873424, 43.745664)"><g><path d="M 7.671875 0.5625 C 6.460938 0.5625 5.296875 0.296875 4.171875 -0.234375 C 3.046875 -0.773438 2.109375 -1.523438 1.359375 -2.484375 L 3.09375 -4.453125 C 4.507812 -2.878906 5.992188 -2.09375 7.546875 -2.09375 C 8.242188 -2.09375 8.894531 -2.242188 9.5 -2.546875 C 10.101562 -2.859375 10.582031 -3.285156 10.9375 -3.828125 C 11.300781 -4.378906 11.484375 -4.976562 11.484375 -5.625 C 11.484375 -6.34375 11.300781 -6.957031 10.9375 -7.46875 C 10.582031 -7.976562 10.003906 -8.445312 9.203125 -8.875 C 7.515625 -9.78125 6.226562 -10.523438 5.34375 -11.109375 C 4.457031 -11.703125 3.734375 -12.414062 3.171875 -13.25 C 2.609375 -14.082031 2.328125 -15.070312 2.328125 -16.21875 C 2.328125 -17.320312 2.585938 -18.300781 3.109375 -19.15625 C 3.628906 -20.007812 4.335938 -20.675781 5.234375 -21.15625 C 6.128906 -21.644531 7.113281 -21.890625 8.1875 -21.890625 C 9.289062 -21.890625 10.3125 -21.644531 11.25 -21.15625 C 12.1875 -20.675781 13.132812 -19.957031 14.09375 -19 L 12.328125 -17.1875 C 11.628906 -17.851562 10.9375 -18.359375 10.25 -18.703125 C 9.570312 -19.054688 8.832031 -19.234375 8.03125 -19.234375 C 7.4375 -19.234375 6.898438 -19.101562 6.421875 -18.84375 C 5.941406 -18.59375 5.550781 -18.253906 5.25 -17.828125 C 4.957031 -17.398438 4.8125 -16.921875 4.8125 -16.390625 C 4.8125 -15.660156 5.023438 -15.023438 5.453125 -14.484375 C 5.890625 -13.953125 6.546875 -13.445312 7.421875 -12.96875 C 9.140625 -12.03125 10.429688 -11.257812 11.296875 -10.65625 C 12.171875 -10.0625 12.851562 -9.375 13.34375 -8.59375 C 13.84375 -7.8125 14.09375 -6.863281 14.09375 -5.75 C 14.09375 -4.625 13.820312 -3.578125 13.28125 -2.609375 C 12.75 -1.648438 11.992188 -0.878906 11.015625 -0.296875 C 10.046875 0.273438 8.929688 0.5625 7.671875 0.5625 Z M 7.671875 0.5625 "/></g></g></g></g></g></g><g clip-path="url(#36d6991d43)"><g transform="matrix(1, 0, 0, 1, 0, 26)"><g clip-path="url(#a457c9295d)"><g fill="#d64238" fill-opacity="1"><g transform="translate(19.270493, 511.257037)"><g><path d="M 81.539062 5.640625 C 146.152344 5.640625 195.382812 -27.691406 195.382812 -82.5625 C 195.382812 -124.617188 168.71875 -144.101562 132.820312 -159.488281 C 92.820312 -176.410156 70.769531 -185.640625 70.769531 -215.898438 C 70.769531 -244.613281 96.410156 -261.539062 134.871094 -261.539062 C 182.5625 -261.539062 215.382812 -234.871094 185.128906 -160.511719 L 221.539062 -242.050781 C 205.128906 -253.332031 171.28125 -263.078125 136.410156 -263.078125 C 78.460938 -263.078125 33.332031 -232.308594 33.332031 -186.667969 C 33.332031 -146.152344 62.5625 -128.71875 100.511719 -111.792969 C 135.382812 -96.921875 160 -85.128906 160 -54.871094 C 160 -15.898438 127.179688 4.101562 83.589844 4.101562 C 31.792969 4.101562 -5.640625 -22.050781 32.308594 -112.820312 L 31.792969 -112.820312 L -12.308594 -14.871094 C 4.617188 -4.101562 38.972656 5.640625 81.539062 5.640625 Z M 81.539062 5.640625 "/></g></g></g><g fill="#d64238" fill-opacity="1"><g transform="translate(222.854262, 511.257037)"><g><path d="M 125.640625 -26.667969 C 91.28125 -26.667969 73.332031 -55.382812 73.332031 -96.921875 C 73.332031 -102.050781 73.332031 -107.179688 73.847656 -112.308594 C 161.027344 -123.589844 238.460938 -163.589844 238.460938 -217.4375 C 238.460938 -250.769531 208.71875 -263.078125 170.769531 -263.078125 C 93.847656 -263.078125 14.871094 -171.792969 14.871094 -77.949219 C 14.871094 -25.640625 43.589844 5.640625 90.769531 5.640625 C 153.847656 5.640625 202.050781 -34.359375 227.691406 -105.640625 L 227.179688 -105.640625 C 203.078125 -49.230469 167.179688 -26.667969 125.640625 -26.667969 Z M 169.230469 -261.539062 C 185.640625 -261.539062 192.308594 -248.203125 192.308594 -228.203125 C 192.308594 -181.027344 159.488281 -126.152344 73.847656 -113.332031 C 79.488281 -190.257812 124.101562 -261.539062 169.230469 -261.539062 Z M 169.230469 -261.539062 "/></g></g></g></g></g></g><g clip-path="url(#1be0731cf1)"><g transform="matrix(1, 0, 0, 1, 503, 620)"><g clip-path="url(#a9334fd6e4)"><g clip-path="url(#cf4774f4e0)"><path fill="#1e1e1e" d="M 797.996094 0.265625 L 797.996094 25.363281 L 0.90625 25.363281 L 0.90625 0.265625 Z M 797.996094 0.265625 " fill-opacity="1" fill-rule="nonzero"/></g></g></g></g></g></g></svg>