<svg xmlns="http://www.w3.org/2000/svg" xmlns:xlink="http://www.w3.org/1999/xlink" width="2000" zoomAndPan="magnify" viewBox="0 0 1500 1499.999933" height="2000" preserveAspectRatio="xMidYMid meet" version="1.0"><path fill="#e51a13" d="M 1018.730469 683.691406 C 1022.265625 681.734375 1025.257812 678.878906 1027.734375 675.429688 C 1025.039062 668.875 1021.558594 666.375 1017.996094 666.375 C 1013.917969 666.375 1009.378906 669.5 1005.597656 673.496094 C 1001.628906 677.683594 998.691406 682.605469 997.929688 685.949219 L 997.902344 685.949219 C 997.710938 686.03125 995.699219 685.648438 996.296875 685.785156 L 996.433594 685.8125 C 1005.652344 687.90625 1012.996094 686.902344 1018.730469 683.691406 M 693.914062 513.644531 C 691.820312 507.199219 686.382812 500.214844 675.914062 493.960938 C 675.695312 494.9375 675.558594 495.972656 675.53125 497.03125 C 674.90625 516.253906 678.332031 526.367188 682.792969 530.417969 C 685.648438 533 689.128906 532.265625 691.523438 529.65625 C 694.566406 526.3125 696.089844 520.386719 693.914062 513.644531 Z M 547.511719 775.636719 C 547.429688 779.308594 547.511719 782.703125 547.78125 785.914062 C 559.964844 785.152344 564.398438 782.652344 564.613281 779.90625 C 564.722656 778.464844 563.117188 776.617188 560.835938 774.957031 C 558.085938 772.972656 554.632812 771.585938 551.699219 771.53125 L 551.671875 771.53125 C 549.414062 771.503906 547.589844 772.617188 547.511719 775.636719 Z M 769.183594 952.511719 C 764.535156 949.246094 759.125 945.742188 752.894531 941.960938 C 747.347656 938.589844 743.679688 939.707031 741.910156 942.613281 C 740.714844 944.542969 740.117188 947.15625 740.089844 949.898438 C 740.0625 952.753906 740.660156 955.691406 741.9375 958.191406 C 744.628906 963.519531 750.910156 966.648438 761.246094 961.425781 C 763.773438 960.148438 766.464844 957.105469 769.019531 952.808594 Z M 628.898438 656.535156 C 635.449219 663.113281 641.679688 668.085938 647.550781 671.730469 L 647.363281 670.671875 C 646.328125 664.28125 647.226562 656.886719 650.707031 648.539062 C 649.074219 648.839844 647.496094 649.195312 645.921875 649.574219 C 639.121094 651.3125 633.113281 653.789062 628.898438 656.535156 Z M 601.296875 621.925781 C 602.4375 623.636719 603.582031 625.296875 604.695312 626.929688 C 615.65625 622.496094 629.035156 620.023438 643.171875 619.289062 C 642.65625 611.40625 643.148438 602.867188 645.050781 594.65625 C 646.355469 589.03125 648.339844 583.511719 651.113281 578.425781 L 649.808594 577.9375 C 641.214844 575.03125 630.773438 575.058594 621.230469 577.585938 C 611.847656 580.085938 603.445312 584.953125 598.769531 591.722656 C 593.546875 599.308594 593.03125 609.554688 601.296875 621.925781 Z M 720.402344 641.199219 C 719.800781 644.164062 718.960938 647.207031 717.898438 650.28125 C 721.625 649.355469 725.296875 648.050781 728.832031 646.394531 C 726.382812 644.542969 723.554688 642.832031 720.402344 641.199219 Z M 677.925781 724.144531 C 668.136719 714.222656 660.738281 701.171875 656.199219 687.5 C 655.003906 686.355469 653.914062 685.105469 652.9375 683.800781 C 643.71875 679.859375 633.738281 672.953125 623.050781 662.296875 C 622.671875 663.085938 622.480469 663.875 622.453125 664.636719 C 622.34375 697.667969 638.0625 718.652344 659.515625 728.386719 C 664.4375 727.734375 669.304688 726.703125 673.929688 725.371094 C 675.289062 724.988281 676.621094 724.582031 677.925781 724.144531 Z M 691.414062 734.804688 C 689.183594 733.496094 687.035156 732.03125 684.96875 730.425781 C 682.140625 731.511719 679.230469 732.492188 676.210938 733.363281 L 675.832031 733.46875 C 680.890625 734.421875 686.136719 734.855469 691.414062 734.804688 Z M 844.644531 696.363281 C 855.46875 695.300781 863.433594 690.515625 869.035156 683.585938 C 860.90625 685.515625 854.40625 687.363281 849.050781 689.046875 L 848.558594 689.972656 C 847.335938 692.148438 846.03125 694.269531 844.644531 696.363281 Z M 830.722656 695.789062 C 832 696.007812 833.25 696.171875 834.445312 696.28125 C 835.179688 695.355469 835.886719 694.402344 836.566406 693.453125 C 834.636719 694.214844 832.898438 694.921875 831.265625 695.574219 Z M 827.839844 703.703125 C 824.523438 703.078125 821.015625 702.234375 817.371094 701.09375 L 815.847656 700.574219 C 808.722656 701.878906 799.53125 701.90625 782.507812 700.304688 C 780.226562 700.085938 778.566406 698.074219 778.757812 695.816406 C 778.972656 693.535156 780.984375 691.875 783.242188 692.066406 C 791.644531 692.855469 797.980469 693.207031 803.039062 693.207031 C 795.914062 687.769531 788.84375 680.292969 783.1875 672.003906 C 776.445312 697.800781 760.644531 716.832031 741.3125 728.6875 C 737.777344 730.859375 734.132812 732.792969 730.378906 734.449219 C 779.300781 734.804688 809.757812 721.617188 827.839844 703.703125 Z M 878.636719 606.890625 C 883.230469 614.015625 886.414062 623.558594 887.800781 633.886719 C 889.050781 643.210938 888.886719 653.21875 887.011719 662.652344 C 886.492188 665.261719 885.839844 667.84375 885.050781 670.34375 C 901.53125 664.554688 910.667969 657.675781 913.984375 650.390625 C 917.683594 642.289062 913.6875 633.152344 904.496094 624.316406 C 898.078125 618.175781 889.214844 612.21875 878.636719 606.890625 Z M 857.015625 626.792969 C 861.097656 619.96875 863.652344 612.085938 864.65625 603.957031 C 863.324219 603.222656 861.9375 602.730469 860.496094 602.542969 C 843.285156 600.257812 830.859375 600.855469 821.992188 603.195312 C 827.324219 603.058594 833.113281 603.222656 839.449219 603.683594 C 846.628906 604.226562 853.535156 613.363281 857.015625 626.792969 Z M 871.808594 611.269531 C 870.257812 618.445312 867.59375 625.351562 863.84375 631.496094 C 862.402344 633.859375 860.769531 636.117188 859.003906 638.265625 C 859.65625 644.980469 859.574219 652.320312 858.484375 659.933594 C 857.589844 666.210938 855.984375 672.65625 853.5625 679.042969 C 857.640625 677.875 862.265625 676.679688 867.539062 675.429688 C 870.152344 674.804688 872.652344 674.175781 875.046875 673.496094 C 876.730469 669.609375 878.007812 665.421875 878.851562 661.101562 C 880.566406 652.539062 880.703125 643.457031 879.558594 635.03125 C 878.335938 625.703125 875.617188 617.25 871.808594 611.269531 Z M 759.097656 570.816406 C 765.351562 551.949219 783.949219 537.59375 823.054688 538.898438 C 848.097656 539.742188 863.707031 555.347656 870.125 574.976562 C 872.21875 581.445312 873.332031 588.351562 873.414062 595.28125 C 888.667969 601.972656 901.476562 609.910156 910.261719 618.363281 C 922.089844 629.699219 926.902344 642.097656 921.546875 653.84375 C 916.867188 664.089844 904.113281 673.417969 880.917969 680.429688 C 879.394531 683.339844 877.628906 686.113281 875.589844 688.640625 C 867.378906 698.890625 855.167969 705.496094 838.144531 704.871094 C 817.722656 728.386719 780.226562 745.894531 715.75 742.304688 C 713.277344 742.171875 710.855469 741.84375 708.492188 741.382812 C 705.664062 741.925781 702.835938 742.332031 700.007812 742.605469 C 685.675781 744.046875 671.371094 742.199219 658.644531 736.976562 L 658.320312 736.84375 C 654.8125 737.222656 651.277344 737.441406 647.742188 737.441406 C 637.898438 737.496094 628.054688 736.027344 618.972656 732.574219 C 595.667969 723.765625 577.53125 702.34375 577.339844 660.992188 C 577.285156 647.289062 584.980469 637.285156 597.136719 630.488281 L 594.417969 626.492188 C 583.894531 610.753906 584.871094 597.242188 591.96875 587.019531 C 597.84375 578.535156 607.960938 572.554688 619.136719 569.566406 C 630.148438 566.628906 642.332031 566.628906 652.5 570.082031 C 653.617188 570.460938 654.703125 570.871094 655.765625 571.332031 C 664.003906 560.757812 676.8125 553.144531 695.875 552.003906 C 710.148438 551.160156 723.9375 552.136719 735.464844 555.699219 C 744.304688 558.417969 751.835938 562.660156 757.382812 568.75 C 757.980469 569.429688 758.550781 570.109375 759.097656 570.816406 Z M 768.367188 607.761719 C 770.109375 612.953125 772.394531 617.929688 775.03125 622.414062 C 775.382812 621.816406 775.765625 621.21875 776.171875 620.621094 C 774.785156 615.535156 772.476562 611.621094 769.429688 608.714844 Z M 786.5625 636.878906 C 789.90625 639.785156 793.304688 641.691406 796.484375 642.207031 C 795.589844 639.867188 794.855469 637.3125 794.363281 634.675781 C 793.550781 630.191406 793.304688 625.324219 794.121094 620.539062 C 794.363281 619.070312 794.71875 617.628906 795.179688 616.1875 C 791.511719 617.710938 788.546875 619.585938 786.207031 621.707031 C 785.828125 622.0625 785.445312 622.414062 785.09375 622.796875 L 785.308594 624.210938 C 785.960938 628.53125 786.34375 632.773438 786.5625 636.878906 Z M 804.101562 640.140625 C 808.503906 636.363281 811.929688 627.609375 813.15625 612.03125 C 810.570312 612.300781 808.179688 612.628906 805.949219 613.0625 C 803.992188 615.78125 802.875 618.828125 802.332031 621.925781 C 801.679688 625.703125 801.871094 629.621094 802.523438 633.207031 C 802.984375 635.761719 803.527344 638.101562 804.101562 640.140625 Z M 800.671875 650.527344 C 799.886719 650.632812 799.097656 650.6875 798.28125 650.6875 C 794.5 650.6875 790.558594 649.382812 786.695312 647.074219 C 786.5625 651.53125 786.207031 655.855469 785.609375 660.011719 C 793.113281 674.203125 805.730469 686.980469 816.5 691.902344 C 820.441406 690.980469 823.84375 689.59375 828.136719 687.851562 C 832.109375 686.25 836.785156 684.34375 843.175781 682.199219 C 846.902344 674.421875 849.160156 666.429688 850.273438 658.734375 C 850.898438 654.332031 851.171875 650.035156 851.117188 645.902344 C 839.96875 654.628906 824.683594 658.925781 805.40625 655.390625 C 804.398438 655.230469 802.578125 653.40625 800.671875 650.527344 Z M 821.476562 611.511719 C 819.925781 631.195312 814.839844 642.453125 808.042969 647.480469 C 826.695312 650.605469 840.808594 645.195312 850.300781 635.519531 L 850.027344 633.832031 C 847.851562 621.191406 843.203125 612.328125 838.796875 612.003906 C 832.433594 611.511719 826.667969 611.351562 821.476562 611.511719 Z M 819.601562 587.886719 C 820.660156 589.953125 821.394531 592.238281 821.722656 594.792969 C 827.269531 593.515625 833.820312 592.808594 841.542969 592.835938 C 834.472656 590.90625 827.105469 589.21875 819.601562 587.886719 Z M 776.472656 584.328125 C 773.101562 584.789062 769.675781 585.414062 766.195312 586.148438 C 766.65625 588.324219 766.980469 590.632812 767.117188 593.054688 C 767.199219 594.386719 767.226562 595.746094 767.199219 597.160156 C 770.109375 598.628906 772.773438 600.476562 775.140625 602.757812 C 778.238281 605.75 780.769531 609.421875 782.617188 613.90625 C 787.242188 610.34375 793.359375 607.515625 801.300781 605.640625 C 804.289062 602.378906 808.316406 599.550781 813.589844 597.375 C 813.480469 595.039062 812.9375 593.082031 812.066406 591.476562 C 810.679688 588.976562 808.34375 587.128906 805.296875 585.824219 C 795.777344 584.707031 786.097656 584.164062 776.472656 584.328125 Z M 775.382812 576.117188 C 782.753906 575.109375 789.796875 574.757812 796.050781 575.300781 C 800.238281 575.683594 804.074219 576.46875 807.445312 577.722656 C 826.75 580.03125 845.378906 584.597656 861.832031 590.632812 L 864.984375 591.832031 C 864.65625 586.9375 863.734375 582.097656 862.238281 577.558594 C 856.855469 561.027344 843.773438 547.871094 822.808594 547.191406 C 786.589844 545.996094 770.542969 559.453125 766.167969 576.550781 C 769.210938 576.308594 772.285156 576.199219 775.382812 576.117188 Z M 756.566406 588.433594 C 752.1875 589.601562 747.894531 590.90625 743.730469 592.292969 C 748.300781 592.292969 752.707031 592.671875 756.867188 593.542969 C 756.703125 591.859375 756.59375 590.144531 756.566406 588.433594 Z M 692.3125 631.632812 C 690.378906 635.710938 689.046875 639.785156 688.257812 643.730469 C 693.125 645.796875 697.695312 648.566406 701.746094 652.183594 C 703.894531 652.210938 706.097656 652.128906 708.328125 651.9375 L 708.355469 651.9375 C 710.449219 647.15625 711.890625 642.261719 712.597656 637.722656 C 708.789062 636.226562 704.683594 634.867188 700.359375 633.644531 C 697.777344 632.910156 695.058594 632.230469 692.3125 631.632812 Z M 700.742188 618.390625 C 699.191406 620.292969 697.804688 622.199219 696.554688 624.101562 C 698.59375 624.589844 700.605469 625.105469 702.589844 625.648438 C 706.234375 626.65625 709.742188 627.796875 713.085938 629.019531 C 712.785156 624.617188 711.453125 621.464844 709.007812 620.648438 C 706.125 619.695312 703.378906 618.933594 700.742188 618.390625 Z M 687.90625 622.277344 C 688.910156 620.59375 690 618.933594 691.195312 617.25 C 688.53125 617.195312 686.03125 617.386719 683.746094 617.820312 C 682.628906 618.90625 681.515625 619.996094 680.480469 621.054688 C 682.984375 621.410156 685.457031 621.816406 687.90625 622.277344 Z M 680.320312 641.066406 C 681.132812 637.421875 682.304688 633.722656 683.9375 630 C 680.671875 629.429688 677.328125 628.96875 673.984375 628.585938 C 673.464844 632.472656 672.839844 635.816406 672.132812 638.699219 L 672.597656 639.625 C 675.179688 639.921875 677.761719 640.414062 680.320312 641.066406 Z M 688.964844 665.179688 C 689.753906 668.035156 690.816406 670.699219 692.09375 673.171875 C 695.328125 670.804688 698.210938 667.898438 700.742188 664.714844 L 701.257812 664.039062 C 700.277344 662.703125 699.21875 661.453125 698.101562 660.285156 C 694.460938 660.039062 690.953125 659.496094 687.660156 658.679688 C 687.933594 660.9375 688.367188 663.113281 688.964844 665.179688 Z M 684.886719 677.304688 C 683.28125 674.257812 681.949219 670.941406 680.972656 667.433594 C 679.9375 663.738281 679.285156 659.796875 679.066406 655.71875 C 674.933594 653.789062 671.371094 651.285156 668.625 648.269531 L 668.136719 649.085938 C 665.28125 653.515625 662.234375 655.308594 659.273438 654.984375 C 659.109375 662.460938 660.113281 670.453125 662.152344 678.363281 C 665.90625 679.425781 669.46875 679.859375 672.839844 679.832031 C 677.164062 679.777344 681.1875 678.855469 684.886719 677.304688 Z M 701.636719 685.132812 C 704.167969 687.144531 706.886719 688.585938 709.605469 689.375 L 710.148438 689.210938 C 709.441406 682.441406 707.890625 676.625 705.691406 671.730469 C 702.996094 674.882812 699.953125 677.738281 696.605469 680.160156 C 698.15625 682.035156 699.871094 683.71875 701.636719 685.132812 Z M 696.582031 691.660156 L 696.527344 691.605469 C 693.96875 689.59375 691.578125 687.144531 689.402344 684.34375 C 684.453125 686.65625 678.933594 687.988281 672.921875 688.070312 L 672.296875 688.070312 C 673.792969 688.695312 675.371094 689.238281 677 689.699219 C 683.09375 691.441406 689.835938 692.121094 696.582031 691.660156 Z M 710.585938 698.074219 L 709.632812 697.910156 C 697.996094 700.847656 685.457031 700.765625 674.746094 697.722656 C 672.488281 697.066406 670.3125 696.308594 668.21875 695.382812 C 672.757812 705.167969 678.933594 714.085938 686.4375 720.910156 C 700.550781 714.738281 710.394531 706.09375 710.585938 698.074219 Z M 734.105469 666.457031 C 735.113281 662.050781 735.792969 657.972656 736.199219 654.222656 C 735.875 653.652344 735.492188 653.109375 735.113281 652.539062 C 728.367188 656.097656 721.109375 658.382812 713.875 659.550781 C 713.058594 661.101562 712.1875 662.625 711.265625 664.117188 C 714.609375 670.125 717.027344 677.386719 718.144531 686.085938 C 721.976562 684.210938 725.484375 681.84375 728.53125 679.015625 C 729.292969 678.308594 730.027344 677.601562 730.679688 676.894531 C 732.011719 673.960938 733.179688 670.507812 734.105469 666.457031 Z M 744.902344 646.121094 C 744.929688 648.078125 744.847656 650.117188 744.710938 652.238281 C 749.007812 661.019531 747.484375 670.96875 737.585938 681.707031 C 733.152344 690.652344 727.0625 695.65625 720.457031 697.53125 C 719.9375 697.667969 719.421875 697.800781 718.90625 697.910156 C 718.878906 708.269531 708.679688 718.898438 693.753906 726.539062 C 698.320312 729.5 703.269531 731.703125 708.570312 732.953125 C 718.441406 730.886719 728.152344 727.109375 737.015625 721.644531 C 756.675781 709.601562 772.285156 689.347656 776.988281 661.34375 C 776.554688 660.449219 776.144531 659.550781 775.738281 658.652344 C 772.421875 651.070312 770.570312 643.238281 771.035156 635.925781 C 771.117188 634.648438 771.25 633.425781 771.46875 632.175781 C 770.734375 631.113281 770 630.054688 769.292969 628.941406 C 767.171875 625.597656 765.242188 622.007812 763.554688 618.199219 L 763.417969 618.609375 C 759.777344 630.433594 753.113281 639.515625 744.902344 646.121094 Z M 726.628906 620.730469 C 723.609375 618.199219 719.9375 616.40625 715.832031 615.238281 C 719.777344 618.773438 721.597656 625.023438 721.40625 632.472656 C 727.28125 635.21875 732.367188 638.375 736.390625 641.851562 C 735.546875 632.09375 732.011719 625.214844 726.628906 620.730469 Z M 713.25 606.183594 C 720.402344 607.433594 726.792969 610.101562 731.929688 614.367188 C 737.886719 619.34375 742.101562 626.382812 743.921875 635.816406 C 749.007812 630.625 753.058594 624.15625 755.535156 616.214844 C 757.003906 611.511719 757.953125 607.164062 758.46875 603.140625 L 758.308594 602.488281 C 753.710938 601.101562 748.546875 600.558594 743.078125 600.613281 C 734.132812 600.691406 724.425781 602.433594 715.179688 604.933594 C 714.5 605.34375 713.847656 605.777344 713.25 606.183594 Z M 675.480469 609.664062 C 677.761719 608.984375 680.046875 608.386719 682.304688 607.871094 C 701.964844 590.554688 727.199219 581.253906 753.902344 577.722656 C 753.113281 576.523438 752.242188 575.410156 751.265625 574.351562 C 746.777344 569.429688 740.496094 565.949219 733.046875 563.636719 C 722.523438 560.375 709.742188 559.507812 696.363281 560.292969 C 680.835938 561.21875 670.203125 567.171875 663.1875 575.574219 C 670.882812 581.28125 675.859375 590.117188 675.667969 602.460938 C 675.613281 604.988281 675.558594 607.382812 675.480469 609.664062 Z M 645.023438 632.257812 C 636.648438 637.285156 628.84375 643.105469 622.207031 649.382812 L 623.378906 650.714844 C 628.652344 646.855469 635.832031 643.59375 643.933594 641.527344 C 645.105469 641.226562 646.300781 640.957031 647.496094 640.710938 L 646.953125 639.160156 C 646.21875 637.042969 645.566406 634.730469 645.023438 632.257812 Z M 653.886719 627.335938 L 652.609375 628.015625 C 653.070312 630.515625 653.644531 632.855469 654.296875 634.976562 C 655.21875 632.3125 656.335938 629.753906 657.640625 627.417969 Z M 651.929688 619.042969 C 656.90625 616.542969 661.992188 614.339844 667.074219 612.464844 C 667.210938 609.339844 667.320312 605.996094 667.375 602.378906 C 667.511719 593.351562 663.976562 586.828125 658.457031 582.503906 C 656.035156 586.882812 654.296875 591.640625 653.152344 596.535156 C 651.386719 604.0625 650.976562 611.867188 651.46875 619.042969 Z M 616.933594 643.210938 C 622.726562 637.75 629.25 632.664062 636.238281 628.097656 C 626.476562 629.046875 617.367188 630.925781 609.617188 633.777344 C 612.09375 637.121094 614.539062 640.277344 616.933594 643.210938 Z M 600.863281 686.519531 C 600.699219 688.804688 598.714844 690.515625 596.429688 690.351562 C 594.144531 690.191406 592.433594 688.207031 592.566406 685.921875 C 593.492188 673.308594 600.535156 660.585938 611.085938 649.085938 C 608.066406 645.441406 604.996094 641.472656 601.867188 637.203125 C 591.832031 642.640625 585.550781 650.445312 585.578125 660.964844 C 585.714844 698.101562 601.542969 717.160156 621.828125 724.824219 C 628.871094 727.488281 636.484375 728.820312 644.207031 729.121094 C 626.234375 716.453125 614.050781 695.082031 614.160156 664.609375 C 614.160156 661.835938 615.328125 659.035156 617.367188 656.371094 L 616.390625 655.285156 C 607.496094 665.179688 601.625 675.945312 600.863281 686.519531 Z M 756.242188 1047.742188 C 754.828125 1049.539062 752.214844 1049.863281 750.421875 1048.449219 C 748.625 1047.035156 748.300781 1044.425781 749.714844 1042.632812 C 757.519531 1032.601562 764.699219 1024.363281 771.007812 1017.132812 C 778.839844 1008.132812 785.308594 1000.710938 789.28125 994.214844 C 796.675781 982.117188 794.910156 972.273438 775.902344 957.429688 C 772.609375 962.867188 768.832031 966.863281 764.96875 968.820312 C 749.199219 976.816406 739.164062 971.078125 734.542969 961.917969 C 732.664062 958.21875 731.765625 953.921875 731.820312 949.820312 C 731.875 945.605469 732.882812 941.5 734.867188 938.265625 C 739 931.46875 746.640625 928.367188 757.246094 934.839844 C 763.09375 938.398438 768.289062 941.746094 772.882812 944.925781 C 775.847656 937.667969 778.050781 928.804688 778.863281 919.371094 C 779.980469 906.183594 778.320312 891.964844 772.039062 879.597656 C 767.5 870.625 760.484375 862.578125 750.3125 856.542969 C 719.09375 838.027344 678.851562 839.035156 642.359375 839.933594 C 631.699219 840.203125 621.363281 840.449219 611.574219 840.230469 C 574.757812 839.359375 546.230469 831.832031 540.332031 794.148438 C 534.15625 794.339844 526.953125 794.175781 518.578125 793.523438 C 511.207031 792.953125 504.546875 791.050781 498.535156 787.980469 C 481.160156 779.144531 469.519531 760.929688 462.75 738.988281 C 456.113281 717.539062 454.101562 692.472656 455.871094 669.285156 C 457.476562 648.351562 462.152344 628.859375 469.304688 614.800781 L 472.511719 608.496094 C 505.0625 544.308594 552.867188 450 649.429688 474.738281 C 658.292969 477.023438 665.824219 479.714844 672.1875 482.675781 C 678.90625 473.625 691.929688 467.753906 708.082031 464.21875 C 727.007812 460.085938 750.53125 459.078125 772.882812 459.8125 C 802.957031 460.820312 831.128906 465.035156 843.339844 469.113281 L 859.054688 474.359375 C 949.90625 504.726562 951.511719 505.242188 1026.535156 577.9375 C 1037.738281 588.785156 1044.972656 611.539062 1045.652344 633.941406 C 1046.007812 645.632812 1044.617188 657.292969 1041.085938 667.21875 C 1039.859375 670.671875 1038.363281 673.933594 1036.597656 676.921875 C 1039.535156 686.246094 1041.355469 699.597656 1041.355469 718.191406 C 1041.355469 809.292969 983.136719 819.054688 911.890625 830.988281 C 901.53125 832.726562 890.871094 834.523438 879.941406 836.640625 L 879.371094 836.722656 C 876.324219 837.023438 863.082031 837.757812 849.320312 838.4375 C 833.792969 839.199219 817.585938 839.90625 814.460938 839.90625 C 812.175781 839.90625 810.300781 838.054688 810.300781 835.746094 C 810.300781 833.460938 812.148438 831.585938 814.460938 831.585938 C 817.75 831.585938 833.738281 830.878906 848.914062 830.144531 C 863.269531 829.4375 876.894531 828.703125 878.28125 828.511719 L 878.335938 828.511719 C 889.160156 826.394531 899.980469 824.597656 910.503906 822.832031 C 977.941406 811.523438 1033.035156 802.304688 1033.035156 718.21875 C 1033.035156 703.675781 1032.082031 692.855469 1030.480469 684.96875 C 1028.195312 687.308594 1025.609375 689.292969 1022.730469 690.898438 C 1015.25 695.054688 1005.921875 696.441406 994.558594 693.859375 L 994.3125 693.804688 C 989.933594 692.691406 988.683594 688.992188 989.796875 684.101562 L 989.796875 684.074219 C 990.859375 679.453125 994.585938 672.980469 999.5625 667.761719 C 1004.699219 662.324219 1011.308594 658.054688 1017.96875 658.054688 C 1023.164062 658.054688 1028.195312 660.585938 1032.246094 667.109375 C 1032.601562 666.265625 1032.925781 665.394531 1033.253906 664.5 C 1036.433594 655.554688 1037.683594 644.925781 1037.359375 634.214844 C 1036.734375 613.796875 1030.453125 593.351562 1020.742188 583.917969 C 947.078125 512.554688 945.527344 512.011719 856.417969 482.242188 L 840.699219 476.996094 C 829.089844 473.109375 801.898438 469.085938 772.609375 468.105469 C 750.882812 467.398438 728.097656 468.378906 709.824219 472.347656 C 696.171875 475.335938 685.214844 479.90625 679.613281 486.59375 C 692.445312 494.148438 699.136719 502.929688 701.800781 511.058594 C 705.007812 520.902344 702.453125 529.925781 697.640625 535.203125 C 692.175781 541.210938 684.015625 542.730469 677.191406 536.535156 C 671.210938 531.070312 666.503906 518.808594 667.238281 496.761719 C 667.320312 494.394531 667.703125 492.136719 668.382812 490.019531 C 662.5625 487.355469 655.601562 484.878906 647.359375 482.757812 C 557.246094 459.652344 511.234375 550.425781 479.910156 612.21875 L 476.699219 618.554688 C 470.039062 631.65625 465.660156 650.035156 464.136719 669.882812 C 462.449219 692.148438 464.355469 716.125 470.636719 736.542969 C 476.78125 756.441406 487.085938 772.835938 502.261719 780.558594 C 507.320312 783.140625 512.949219 784.742188 519.148438 785.234375 C 527.113281 785.832031 533.832031 786.101562 539.40625 786.101562 C 539.1875 782.757812 539.105469 779.199219 539.1875 775.417969 C 539.40625 766.367188 544.980469 763.050781 551.832031 763.210938 L 551.886719 763.210938 C 556.511719 763.347656 561.703125 765.332031 565.648438 768.1875 C 570.078125 771.394531 573.179688 775.855469 572.824219 780.476562 C 572.390625 786.265625 566.082031 791.757812 548.734375 793.578125 C 554.578125 824.84375 579.570312 831.179688 611.683594 831.9375 C 621.285156 832.15625 631.535156 831.910156 642.085938 831.640625 C 679.691406 830.6875 721.214844 829.65625 754.445312 849.390625 C 766.113281 856.296875 774.132812 865.542969 779.355469 875.871094 C 786.398438 889.765625 788.273438 905.53125 787.050781 920.078125 C 786.097656 931.140625 783.351562 941.582031 779.679688 949.925781 C 804.589844 968.792969 806.574219 981.652344 796.269531 998.535156 C 791.890625 1005.714844 785.253906 1013.324219 777.179688 1022.597656 C 770.898438 1029.910156 763.636719 1038.253906 756.242188 1047.742188 Z M 756.242188 1047.742188 " fill-opacity="1" fill-rule="nonzero"/></svg>