<svg xmlns="http://www.w3.org/2000/svg" xmlns:xlink="http://www.w3.org/1999/xlink" width="2000" zoomAndPan="magnify" viewBox="0 0 1500 1499.999933" height="2000" preserveAspectRatio="xMidYMid meet" version="1.0"><defs><g/><clipPath id="bcf86eb24b"><path d="M 738 2 L 1438.855469 2 L 1438.855469 702.519531 L 738 702.519531 Z M 738 2 " clip-rule="nonzero"/></clipPath><clipPath id="485d38e2cc"><rect x="0" width="1488" y="0" height="412"/></clipPath><clipPath id="e62e9a58dc"><path d="M 49 1085 L 1424 1085 L 1424 1346.441406 L 49 1346.441406 Z M 49 1085 " clip-rule="nonzero"/></clipPath><clipPath id="2f8a211d03"><rect x="0" width="1375" y="0" height="262"/></clipPath><clipPath id="9894b69c72"><rect x="0" width="1488" y="0" height="1347"/></clipPath></defs><g transform="matrix(1, 0, 0, 1, 6, 107)"><g clip-path="url(#9894b69c72)"><g clip-path="url(#bcf86eb24b)"><path fill="#d9d9d9" d="M 1407.324219 268.453125 C 1411.523438 266.128906 1415.074219 262.738281 1418.015625 258.636719 C 1414.816406 250.851562 1410.683594 247.878906 1406.449219 247.878906 C 1401.605469 247.878906 1396.210938 251.59375 1391.722656 256.339844 C 1387.007812 261.316406 1383.515625 267.164062 1382.613281 271.136719 L 1382.582031 271.136719 C 1382.355469 271.230469 1379.964844 270.78125 1380.675781 270.941406 L 1380.835938 270.972656 C 1391.785156 273.460938 1400.507812 272.265625 1407.324219 268.453125 M 1021.5 66.417969 C 1019.011719 58.761719 1012.554688 50.460938 1000.117188 43.03125 C 999.859375 44.195312 999.699219 45.421875 999.664062 46.683594 C 998.921875 69.519531 1002.992188 81.535156 1008.289062 86.347656 C 1011.679688 89.414062 1015.816406 88.542969 1018.65625 85.441406 C 1022.277344 81.46875 1024.085938 74.429688 1021.5 66.417969 Z M 847.597656 377.691406 C 847.5 382.054688 847.597656 386.089844 847.921875 389.902344 C 862.390625 388.996094 867.65625 386.027344 867.914062 382.761719 C 868.042969 381.050781 866.136719 378.855469 863.425781 376.886719 C 860.164062 374.527344 856.058594 372.878906 852.570312 372.816406 L 852.539062 372.816406 C 849.859375 372.78125 847.695312 374.105469 847.597656 377.691406 Z M 1110.90625 587.835938 C 1105.382812 583.960938 1098.957031 579.792969 1091.558594 575.304688 C 1084.96875 571.296875 1080.609375 572.621094 1078.507812 576.078125 C 1077.089844 578.371094 1076.378906 581.472656 1076.34375 584.734375 C 1076.3125 588.125 1077.023438 591.613281 1078.542969 594.585938 C 1081.738281 600.917969 1089.199219 604.632812 1101.476562 598.429688 C 1104.480469 596.910156 1107.675781 593.292969 1110.710938 588.191406 Z M 944.269531 236.1875 C 952.054688 244.003906 959.453125 249.914062 966.429688 254.242188 L 966.203125 252.984375 C 964.976562 245.390625 966.042969 236.605469 970.175781 226.691406 C 968.238281 227.046875 966.363281 227.464844 964.492188 227.917969 C 956.414062 229.984375 949.277344 232.925781 944.269531 236.1875 Z M 911.488281 195.070312 C 912.84375 197.105469 914.199219 199.074219 915.523438 201.011719 C 928.542969 195.746094 944.433594 192.808594 961.230469 191.9375 C 960.613281 182.570312 961.195312 172.425781 963.457031 162.671875 C 965.007812 155.984375 967.367188 149.429688 970.660156 143.390625 L 969.109375 142.808594 C 958.902344 139.351562 946.5 139.382812 935.164062 142.386719 C 924.019531 145.359375 914.039062 151.140625 908.484375 159.183594 C 902.28125 168.195312 901.667969 180.371094 911.488281 195.070312 Z M 1052.960938 217.96875 C 1052.25 221.488281 1051.25 225.109375 1049.988281 228.757812 C 1054.414062 227.660156 1058.773438 226.109375 1062.972656 224.140625 C 1060.066406 221.941406 1056.707031 219.90625 1052.960938 217.96875 Z M 1002.507812 316.515625 C 990.878906 304.726562 982.09375 289.222656 976.699219 272.976562 C 975.277344 271.621094 973.988281 270.132812 972.824219 268.582031 C 961.875 263.898438 950.019531 255.695312 937.328125 243.035156 C 936.875 243.972656 936.648438 244.90625 936.617188 245.8125 C 936.488281 285.054688 955.15625 309.992188 980.640625 321.554688 C 986.488281 320.78125 992.269531 319.550781 997.761719 317.96875 C 999.375 317.519531 1000.957031 317.035156 1002.507812 316.515625 Z M 1018.527344 329.179688 C 1015.878906 327.628906 1013.328125 325.882812 1010.875 323.976562 C 1007.515625 325.269531 1004.058594 326.433594 1000.472656 327.464844 L 1000.019531 327.59375 C 1006.027344 328.726562 1012.261719 329.242188 1018.527344 329.179688 Z M 1200.539062 283.507812 C 1213.394531 282.246094 1222.859375 276.5625 1229.511719 268.324219 C 1219.855469 270.617188 1212.132812 272.816406 1205.769531 274.816406 L 1205.191406 275.914062 C 1203.734375 278.5 1202.1875 281.019531 1200.539062 283.507812 Z M 1184 282.828125 C 1185.519531 283.085938 1187.003906 283.28125 1188.425781 283.410156 C 1189.296875 282.3125 1190.136719 281.179688 1190.945312 280.050781 C 1188.652344 280.953125 1186.585938 281.792969 1184.648438 282.570312 Z M 1180.578125 292.226562 C 1176.636719 291.484375 1172.46875 290.484375 1168.140625 289.125 L 1166.332031 288.511719 C 1157.871094 290.0625 1146.953125 290.09375 1126.734375 288.1875 C 1124.019531 287.929688 1122.050781 285.539062 1122.277344 282.859375 C 1122.535156 280.148438 1124.925781 278.175781 1127.605469 278.402344 C 1137.585938 279.339844 1145.113281 279.757812 1151.121094 279.757812 C 1142.65625 273.300781 1134.257812 264.417969 1127.539062 254.566406 C 1119.53125 285.21875 1100.765625 307.828125 1077.800781 321.910156 C 1073.601562 324.496094 1069.273438 326.789062 1064.8125 328.757812 C 1122.921875 329.179688 1159.097656 313.511719 1180.578125 292.226562 Z M 1240.914062 177.207031 C 1246.371094 185.667969 1250.152344 197.007812 1251.796875 209.28125 C 1253.285156 220.359375 1253.089844 232.246094 1250.863281 243.453125 C 1250.25 246.554688 1249.472656 249.625 1248.535156 252.59375 C 1268.109375 245.714844 1278.960938 237.542969 1282.902344 228.886719 C 1287.296875 219.261719 1282.546875 208.410156 1271.628906 197.910156 C 1264.007812 190.613281 1253.476562 183.539062 1240.914062 177.207031 Z M 1215.234375 200.851562 C 1220.078125 192.742188 1223.117188 183.375 1224.3125 173.71875 C 1222.730469 172.847656 1221.082031 172.265625 1219.371094 172.039062 C 1198.921875 169.324219 1184.164062 170.035156 1173.632812 172.8125 C 1179.964844 172.652344 1186.84375 172.847656 1194.371094 173.394531 C 1202.894531 174.042969 1211.101562 184.894531 1215.234375 200.851562 Z M 1232.804688 182.40625 C 1230.964844 190.933594 1227.800781 199.136719 1223.34375 206.4375 C 1221.628906 209.25 1219.691406 211.929688 1217.59375 214.480469 C 1218.367188 222.460938 1218.269531 231.179688 1216.980469 240.222656 C 1215.914062 247.683594 1214.007812 255.339844 1211.132812 262.929688 C 1215.976562 261.542969 1221.46875 260.121094 1227.734375 258.636719 C 1230.835938 257.890625 1233.808594 257.148438 1236.648438 256.339844 C 1238.652344 251.722656 1240.171875 246.75 1241.171875 241.613281 C 1243.207031 231.4375 1243.367188 220.648438 1242.011719 210.636719 C 1240.558594 199.558594 1237.328125 189.511719 1232.804688 182.40625 Z M 1098.921875 134.34375 C 1106.351562 111.929688 1128.445312 94.875 1174.890625 96.425781 C 1204.640625 97.425781 1223.179688 115.964844 1230.804688 139.285156 C 1233.289062 146.972656 1234.613281 155.179688 1234.710938 163.414062 C 1252.832031 171.359375 1268.046875 180.792969 1278.476562 190.835938 C 1292.527344 204.304688 1298.246094 219.035156 1291.882812 232.988281 C 1286.328125 245.164062 1271.179688 256.246094 1243.625 264.578125 C 1241.816406 268.035156 1239.71875 271.328125 1237.296875 274.332031 C 1227.542969 286.511719 1213.039062 294.359375 1192.820312 293.617188 C 1168.5625 321.554688 1124.019531 342.355469 1047.4375 338.09375 C 1044.496094 337.929688 1041.621094 337.542969 1038.8125 336.996094 C 1035.453125 337.640625 1032.09375 338.125 1028.734375 338.449219 C 1011.714844 340.160156 994.722656 337.964844 979.605469 331.761719 L 979.21875 331.601562 C 975.054688 332.050781 970.855469 332.3125 966.65625 332.3125 C 954.960938 332.375 943.269531 330.632812 932.480469 326.53125 C 904.800781 316.0625 883.257812 290.613281 883.03125 241.484375 C 882.964844 225.203125 892.105469 213.316406 906.542969 205.242188 L 903.316406 200.496094 C 890.816406 181.792969 891.976562 165.742188 900.40625 153.597656 C 907.382812 143.519531 919.398438 136.414062 932.675781 132.859375 C 945.757812 129.371094 960.226562 129.371094 972.308594 133.472656 C 973.632812 133.925781 974.921875 134.410156 976.183594 134.957031 C 985.96875 122.394531 1001.183594 113.351562 1023.824219 111.992188 C 1040.785156 110.992188 1057.160156 112.15625 1070.855469 116.386719 C 1081.351562 119.617188 1090.300781 124.65625 1096.886719 131.890625 C 1097.597656 132.699219 1098.277344 133.503906 1098.921875 134.34375 Z M 1109.9375 178.242188 C 1112.003906 184.410156 1114.71875 190.320312 1117.851562 195.648438 C 1118.269531 194.941406 1118.722656 194.230469 1119.207031 193.519531 C 1117.558594 187.476562 1114.816406 182.828125 1111.195312 179.371094 Z M 1131.546875 212.832031 C 1135.519531 216.289062 1139.554688 218.550781 1143.335938 219.164062 C 1142.269531 216.386719 1141.398438 213.351562 1140.816406 210.21875 C 1139.847656 204.886719 1139.554688 199.105469 1140.523438 193.421875 C 1140.816406 191.675781 1141.234375 189.964844 1141.785156 188.253906 C 1137.425781 190.0625 1133.902344 192.289062 1131.125 194.808594 C 1130.675781 195.230469 1130.222656 195.648438 1129.800781 196.101562 L 1130.058594 197.78125 C 1130.835938 202.917969 1131.289062 207.957031 1131.546875 212.832031 Z M 1152.378906 216.710938 C 1157.613281 212.21875 1161.683594 201.820312 1163.136719 183.3125 C 1160.066406 183.632812 1157.222656 184.023438 1154.574219 184.539062 C 1152.25 187.769531 1150.925781 191.386719 1150.28125 195.070312 C 1149.503906 199.558594 1149.730469 204.210938 1150.507812 208.472656 C 1151.054688 211.507812 1151.703125 214.289062 1152.378906 216.710938 Z M 1148.308594 229.046875 C 1147.371094 229.175781 1146.4375 229.242188 1145.46875 229.242188 C 1140.976562 229.242188 1136.292969 227.691406 1131.707031 224.945312 C 1131.546875 230.242188 1131.125 235.378906 1130.414062 240.320312 C 1139.332031 257.179688 1154.316406 272.363281 1167.109375 278.207031 C 1171.792969 277.109375 1175.828125 275.464844 1180.933594 273.394531 C 1185.648438 271.492188 1191.203125 269.230469 1198.792969 266.675781 C 1203.21875 257.441406 1205.898438 247.945312 1207.222656 238.804688 C 1207.96875 233.570312 1208.289062 228.464844 1208.226562 223.558594 C 1194.984375 233.925781 1176.832031 239.027344 1153.929688 234.828125 C 1152.734375 234.636719 1150.570312 232.472656 1148.308594 229.046875 Z M 1173.019531 182.699219 C 1171.179688 206.082031 1165.136719 219.457031 1157.0625 225.429688 C 1179.21875 229.144531 1195.984375 222.71875 1207.257812 211.21875 L 1206.933594 209.214844 C 1204.351562 194.195312 1198.828125 183.667969 1193.59375 183.28125 C 1186.035156 182.699219 1179.1875 182.503906 1173.019531 182.699219 Z M 1170.789062 154.628906 C 1172.050781 157.085938 1172.921875 159.796875 1173.308594 162.832031 C 1179.898438 161.316406 1187.683594 160.476562 1196.855469 160.507812 C 1188.457031 158.214844 1179.707031 156.210938 1170.789062 154.628906 Z M 1119.5625 150.398438 C 1115.558594 150.945312 1111.488281 151.691406 1107.351562 152.5625 C 1107.902344 155.144531 1108.289062 157.890625 1108.453125 160.765625 C 1108.546875 162.347656 1108.582031 163.964844 1108.546875 165.644531 C 1112.003906 167.386719 1115.167969 169.585938 1117.980469 172.296875 C 1121.664062 175.851562 1124.667969 180.210938 1126.863281 185.539062 C 1132.355469 181.308594 1139.621094 177.949219 1149.050781 175.722656 C 1152.605469 171.84375 1157.386719 168.484375 1163.652344 165.902344 C 1163.523438 163.125 1162.875 160.796875 1161.84375 158.894531 C 1160.195312 155.921875 1157.417969 153.726562 1153.800781 152.175781 C 1142.496094 150.851562 1130.996094 150.203125 1119.5625 150.398438 Z M 1118.269531 140.644531 C 1127.023438 139.449219 1135.390625 139.027344 1142.820312 139.675781 C 1147.792969 140.125 1152.347656 141.0625 1156.351562 142.550781 C 1179.285156 145.292969 1201.410156 150.722656 1220.953125 157.890625 L 1224.699219 159.3125 C 1224.3125 153.5 1223.214844 147.75 1221.4375 142.355469 C 1215.042969 122.71875 1199.503906 107.082031 1174.601562 106.277344 C 1131.578125 104.855469 1112.519531 120.84375 1107.320312 141.160156 C 1110.9375 140.871094 1114.589844 140.742188 1118.269531 140.644531 Z M 1095.917969 155.273438 C 1090.71875 156.664062 1085.617188 158.214844 1080.671875 159.863281 C 1086.101562 159.863281 1091.332031 160.3125 1096.273438 161.347656 C 1096.082031 159.34375 1095.953125 157.308594 1095.917969 155.273438 Z M 1019.59375 206.601562 C 1017.300781 211.445312 1015.71875 216.289062 1014.78125 220.972656 C 1020.5625 223.429688 1025.988281 226.722656 1030.800781 231.019531 C 1033.355469 231.050781 1035.96875 230.953125 1038.621094 230.726562 L 1038.652344 230.726562 C 1041.136719 225.042969 1042.851562 219.230469 1043.691406 213.835938 C 1039.167969 212.058594 1034.289062 210.445312 1029.15625 208.988281 C 1026.085938 208.117188 1022.855469 207.308594 1019.59375 206.601562 Z M 1029.609375 190.871094 C 1027.765625 193.128906 1026.117188 195.390625 1024.632812 197.652344 C 1027.054688 198.234375 1029.445312 198.847656 1031.804688 199.492188 C 1036.132812 200.6875 1040.300781 202.046875 1044.273438 203.5 C 1043.917969 198.265625 1042.332031 194.519531 1039.425781 193.550781 C 1036.003906 192.421875 1032.742188 191.515625 1029.609375 190.871094 Z M 1014.363281 195.488281 C 1015.558594 193.484375 1016.847656 191.515625 1018.269531 189.511719 C 1015.105469 189.449219 1012.132812 189.675781 1009.421875 190.191406 C 1008.097656 191.484375 1006.769531 192.777344 1005.542969 194.035156 C 1008.515625 194.453125 1011.453125 194.941406 1014.363281 195.488281 Z M 1005.351562 217.808594 C 1006.320312 213.480469 1007.707031 209.085938 1009.644531 204.660156 C 1005.769531 203.984375 1001.796875 203.433594 997.824219 202.980469 C 997.210938 207.601562 996.46875 211.574219 995.628906 214.996094 L 996.175781 216.097656 C 999.246094 216.453125 1002.3125 217.03125 1005.351562 217.808594 Z M 1015.621094 246.457031 C 1016.558594 249.847656 1017.816406 253.015625 1019.335938 255.953125 C 1023.179688 253.144531 1026.605469 249.6875 1029.609375 245.910156 L 1030.222656 245.101562 C 1029.058594 243.519531 1027.796875 242.03125 1026.472656 240.644531 C 1022.144531 240.351562 1017.980469 239.707031 1014.070312 238.738281 C 1014.394531 241.417969 1014.910156 244.003906 1015.621094 246.457031 Z M 1010.777344 260.863281 C 1008.871094 257.246094 1007.289062 253.304688 1006.125 249.140625 C 1004.898438 244.746094 1004.121094 240.0625 1003.863281 235.21875 C 998.953125 232.925781 994.722656 229.953125 991.460938 226.367188 L 990.878906 227.335938 C 987.488281 232.601562 983.871094 234.734375 980.351562 234.34375 C 980.15625 243.226562 981.351562 252.722656 983.773438 262.125 C 988.230469 263.382812 992.460938 263.898438 996.46875 263.867188 C 1001.601562 263.804688 1006.382812 262.703125 1010.777344 260.863281 Z M 1030.671875 270.167969 C 1033.675781 272.554688 1036.90625 274.269531 1040.136719 275.203125 L 1040.78125 275.011719 C 1039.945312 266.96875 1038.101562 260.054688 1035.484375 254.242188 C 1032.289062 257.988281 1028.671875 261.378906 1024.699219 264.253906 C 1026.539062 266.484375 1028.574219 268.488281 1030.671875 270.167969 Z M 1024.664062 277.917969 L 1024.601562 277.851562 C 1021.566406 275.464844 1018.722656 272.554688 1016.136719 269.230469 C 1010.261719 271.976562 1003.703125 273.558594 996.566406 273.65625 L 995.820312 273.65625 C 997.597656 274.398438 999.472656 275.042969 1001.410156 275.59375 C 1008.644531 277.660156 1016.65625 278.46875 1024.664062 277.917969 Z M 1041.300781 285.539062 L 1040.167969 285.347656 C 1026.34375 288.835938 1011.453125 288.738281 998.730469 285.121094 C 996.046875 284.34375 993.464844 283.441406 990.976562 282.34375 C 996.371094 293.972656 1003.703125 304.566406 1012.617188 312.671875 C 1029.382812 305.339844 1041.074219 295.070312 1041.300781 285.539062 Z M 1069.238281 247.976562 C 1070.433594 242.742188 1071.242188 237.898438 1071.726562 233.441406 C 1071.339844 232.761719 1070.886719 232.117188 1070.433594 231.4375 C 1062.425781 235.667969 1053.800781 238.382812 1045.207031 239.773438 C 1044.238281 241.613281 1043.207031 243.421875 1042.109375 245.199219 C 1046.082031 252.335938 1048.957031 260.960938 1050.28125 271.296875 C 1054.832031 269.066406 1059 266.257812 1062.617188 262.898438 C 1063.523438 262.058594 1064.394531 261.21875 1065.167969 260.378906 C 1066.753906 256.890625 1068.140625 252.789062 1069.238281 247.976562 Z M 1082.0625 223.816406 C 1082.09375 226.140625 1081.996094 228.5625 1081.835938 231.082031 C 1086.941406 241.515625 1085.132812 253.335938 1073.375 266.097656 C 1068.109375 276.722656 1060.875 282.667969 1053.023438 284.894531 C 1052.410156 285.054688 1051.796875 285.21875 1051.183594 285.347656 C 1051.152344 297.652344 1039.039062 310.28125 1021.304688 319.359375 C 1026.734375 322.878906 1032.609375 325.496094 1038.910156 326.980469 C 1050.632812 324.527344 1062.164062 320.039062 1072.695312 313.542969 C 1096.046875 299.234375 1114.589844 275.171875 1120.175781 241.902344 C 1119.660156 240.835938 1119.175781 239.773438 1118.691406 238.707031 C 1114.75 229.695312 1112.554688 220.390625 1113.101562 211.703125 C 1113.199219 210.183594 1113.359375 208.730469 1113.621094 207.246094 C 1112.746094 205.984375 1111.875 204.726562 1111.035156 203.402344 C 1108.515625 199.429688 1106.222656 195.164062 1104.21875 190.644531 L 1104.058594 191.128906 C 1099.730469 205.179688 1091.816406 215.96875 1082.0625 223.816406 Z M 1060.355469 193.648438 C 1056.773438 190.644531 1052.410156 188.511719 1047.535156 187.121094 C 1052.21875 191.320312 1054.382812 198.75 1054.15625 207.601562 C 1061.132812 210.863281 1067.171875 214.609375 1071.953125 218.746094 C 1070.953125 207.148438 1066.753906 198.976562 1060.355469 193.648438 Z M 1044.464844 176.367188 C 1052.960938 177.851562 1060.550781 181.019531 1066.65625 186.089844 C 1073.730469 192 1078.734375 200.367188 1080.898438 211.574219 C 1086.941406 205.40625 1091.753906 197.71875 1094.691406 188.285156 C 1096.4375 182.699219 1097.566406 177.53125 1098.179688 172.75 L 1097.988281 171.972656 C 1092.527344 170.328125 1086.390625 169.679688 1079.898438 169.746094 C 1069.273438 169.84375 1057.742188 171.910156 1046.757812 174.882812 C 1045.953125 175.367188 1045.175781 175.882812 1044.464844 176.367188 Z M 999.601562 180.5 C 1002.3125 179.695312 1005.027344 178.984375 1007.707031 178.371094 C 1031.0625 157.792969 1061.035156 146.75 1092.753906 142.550781 C 1091.816406 141.128906 1090.785156 139.804688 1089.621094 138.542969 C 1084.292969 132.699219 1076.828125 128.5625 1067.980469 125.816406 C 1055.480469 121.941406 1040.296875 120.90625 1024.40625 121.84375 C 1005.964844 122.941406 993.335938 130.015625 985 139.996094 C 994.140625 146.78125 1000.054688 157.277344 999.828125 171.941406 C 999.761719 174.945312 999.699219 177.789062 999.601562 180.5 Z M 963.425781 207.34375 C 953.476562 213.316406 944.207031 220.230469 936.324219 227.691406 L 937.714844 229.273438 C 943.980469 224.6875 952.507812 220.8125 962.132812 218.355469 C 963.523438 218 964.941406 217.679688 966.363281 217.386719 L 965.71875 215.546875 C 964.847656 213.027344 964.070312 210.28125 963.425781 207.34375 Z M 973.953125 201.496094 L 972.4375 202.304688 C 972.984375 205.277344 973.664062 208.054688 974.4375 210.574219 C 975.539062 207.40625 976.863281 204.371094 978.414062 201.59375 Z M 971.628906 191.644531 C 977.539062 188.671875 983.582031 186.058594 989.621094 183.828125 C 989.78125 180.113281 989.910156 176.140625 989.976562 171.84375 C 990.136719 161.121094 985.9375 153.371094 979.382812 148.234375 C 976.507812 153.433594 974.4375 159.085938 973.082031 164.902344 C 970.984375 173.847656 970.5 183.117188 971.082031 191.644531 Z M 930.058594 220.359375 C 936.9375 213.867188 944.691406 207.828125 952.992188 202.402344 C 941.394531 203.53125 930.574219 205.761719 921.371094 209.152344 C 924.308594 213.125 927.214844 216.871094 930.058594 220.359375 Z M 910.96875 271.8125 C 910.777344 274.527344 908.417969 276.5625 905.703125 276.367188 C 902.992188 276.175781 900.957031 273.816406 901.117188 271.101562 C 902.214844 256.117188 910.582031 241 923.113281 227.335938 C 919.53125 223.007812 915.878906 218.292969 912.164062 213.222656 C 900.246094 219.679688 892.785156 228.953125 892.816406 241.453125 C 892.980469 285.574219 911.777344 308.214844 935.875 317.324219 C 944.238281 320.488281 953.28125 322.070312 962.457031 322.425781 C 941.105469 307.375 926.636719 281.988281 926.765625 245.78125 C 926.765625 242.484375 928.152344 239.15625 930.574219 235.992188 L 929.414062 234.699219 C 918.851562 246.457031 911.875 259.25 910.96875 271.8125 Z M 1095.53125 700.980469 C 1093.851562 703.113281 1090.75 703.5 1088.621094 701.820312 C 1086.488281 700.140625 1086.101562 697.042969 1087.78125 694.910156 C 1097.050781 682.992188 1105.578125 673.203125 1113.070312 664.613281 C 1122.371094 653.921875 1130.058594 645.101562 1134.777344 637.382812 C 1143.5625 623.011719 1141.460938 611.316406 1118.882812 593.683594 C 1114.976562 600.140625 1110.488281 604.890625 1105.898438 607.214844 C 1087.164062 616.710938 1075.246094 609.894531 1069.757812 599.011719 C 1067.527344 594.617188 1066.460938 589.515625 1066.527344 584.636719 C 1066.589844 579.632812 1067.785156 574.753906 1070.144531 570.910156 C 1075.054688 562.835938 1084.128906 559.152344 1096.726562 566.839844 C 1103.671875 571.070312 1109.839844 575.042969 1115.300781 578.824219 C 1118.820312 570.199219 1121.4375 559.671875 1122.40625 548.460938 C 1123.730469 532.796875 1121.757812 515.902344 1114.296875 501.207031 C 1108.902344 490.546875 1100.570312 480.988281 1088.488281 473.816406 C 1051.410156 451.820312 1003.605469 453.015625 960.257812 454.082031 C 947.597656 454.40625 935.324219 454.695312 923.695312 454.4375 C 879.960938 453.402344 846.078125 444.457031 839.070312 399.6875 C 831.738281 399.914062 823.179688 399.722656 813.230469 398.945312 C 804.476562 398.265625 796.5625 396.007812 789.425781 392.355469 C 768.785156 381.859375 754.960938 360.21875 746.917969 334.152344 C 739.039062 308.667969 736.648438 278.886719 738.746094 251.335938 C 740.652344 226.464844 746.207031 203.304688 754.703125 186.605469 L 758.515625 179.113281 C 797.175781 102.851562 853.960938 -9.195312 968.65625 20.195312 C 979.1875 22.910156 988.132812 26.109375 995.691406 29.628906 C 1003.671875 18.871094 1019.140625 11.894531 1038.328125 7.695312 C 1060.808594 2.785156 1088.75 1.59375 1115.300781 2.464844 C 1151.023438 3.660156 1184.484375 8.664062 1198.988281 13.511719 L 1217.65625 19.746094 C 1325.570312 55.824219 1327.476562 56.4375 1416.59375 142.808594 C 1429.898438 155.695312 1438.492188 182.730469 1439.300781 209.34375 C 1439.71875 223.234375 1438.070312 237.089844 1433.871094 248.878906 C 1432.417969 252.980469 1430.644531 256.859375 1428.542969 260.410156 C 1432.03125 271.488281 1434.195312 287.347656 1434.195312 309.441406 C 1434.195312 417.679688 1365.042969 429.273438 1280.414062 443.453125 C 1268.109375 445.523438 1255.449219 447.652344 1242.464844 450.171875 L 1241.785156 450.269531 C 1238.167969 450.625 1222.4375 451.496094 1206.09375 452.304688 C 1187.652344 453.210938 1168.398438 454.050781 1164.683594 454.050781 C 1161.972656 454.050781 1159.742188 451.851562 1159.742188 449.105469 C 1159.742188 446.394531 1161.941406 444.164062 1164.683594 444.164062 C 1168.59375 444.164062 1187.585938 443.324219 1205.609375 442.453125 C 1222.664062 441.613281 1238.847656 440.742188 1240.492188 440.515625 L 1240.558594 440.515625 C 1253.414062 437.996094 1266.269531 435.863281 1278.769531 433.765625 C 1358.871094 420.328125 1424.3125 409.378906 1424.3125 309.476562 C 1424.3125 292.195312 1423.179688 279.339844 1421.277344 269.972656 C 1418.5625 272.75 1415.496094 275.109375 1412.070312 277.011719 C 1403.1875 281.957031 1392.109375 283.601562 1378.609375 280.535156 L 1378.316406 280.46875 C 1373.117188 279.144531 1371.632812 274.753906 1372.957031 268.9375 L 1372.957031 268.90625 C 1374.214844 263.414062 1378.640625 255.726562 1384.550781 249.527344 C 1390.65625 243.066406 1398.503906 237.996094 1406.417969 237.996094 C 1412.585938 237.996094 1418.5625 241 1423.375 248.75 C 1423.796875 247.75 1424.183594 246.714844 1424.570312 245.648438 C 1428.347656 235.023438 1429.835938 222.394531 1429.449219 209.667969 C 1428.703125 185.410156 1421.242188 161.121094 1409.710938 149.914062 C 1322.210938 65.125 1320.371094 64.480469 1214.523438 29.113281 L 1195.855469 22.878906 C 1182.0625 18.257812 1149.761719 13.476562 1114.976562 12.316406 C 1089.167969 11.476562 1062.101562 12.636719 1040.394531 17.355469 C 1024.179688 20.90625 1011.164062 26.332031 1004.511719 34.28125 C 1019.753906 43.257812 1027.703125 53.691406 1030.867188 63.347656 C 1034.679688 75.042969 1031.640625 85.765625 1025.925781 92.03125 C 1019.433594 99.171875 1009.742188 100.980469 1001.636719 93.613281 C 994.53125 87.121094 988.941406 72.554688 989.8125 46.359375 C 989.910156 43.550781 990.363281 40.867188 991.171875 38.347656 C 984.257812 35.183594 975.988281 32.246094 966.203125 29.726562 C 859.160156 2.269531 804.507812 110.121094 767.300781 183.539062 L 763.488281 191.0625 C 755.574219 206.632812 750.375 228.464844 748.566406 252.046875 C 746.5625 278.5 748.824219 306.988281 756.285156 331.246094 C 763.585938 354.886719 775.828125 374.367188 793.851562 383.539062 C 799.859375 386.605469 806.542969 388.511719 813.910156 389.09375 C 823.371094 389.804688 831.351562 390.128906 837.972656 390.128906 C 837.714844 386.15625 837.617188 381.921875 837.714844 377.433594 C 837.972656 366.679688 844.59375 362.738281 852.734375 362.929688 L 852.796875 362.929688 C 858.289062 363.09375 864.457031 365.449219 869.140625 368.84375 C 874.40625 372.652344 878.089844 377.949219 877.667969 383.441406 C 877.152344 390.320312 869.65625 396.847656 849.050781 399.011719 C 855.996094 436.15625 885.679688 443.679688 923.824219 444.585938 C 935.226562 444.84375 947.402344 444.554688 959.9375 444.230469 C 1004.605469 443.097656 1053.929688 441.871094 1093.398438 465.320312 C 1107.257812 473.527344 1116.785156 484.507812 1122.984375 496.78125 C 1131.351562 513.285156 1133.582031 532.019531 1132.128906 549.300781 C 1130.996094 562.449219 1127.734375 574.851562 1123.375 584.765625 C 1152.960938 607.183594 1155.320312 622.460938 1143.078125 642.519531 C 1137.875 651.046875 1129.996094 660.089844 1120.402344 671.105469 C 1112.941406 679.792969 1104.316406 689.710938 1095.53125 700.980469 Z M 1095.53125 700.980469 " fill-opacity="1" fill-rule="nonzero"/></g><g transform="matrix(1, 0, 0, 1, 0, 744)"><g clip-path="url(#485d38e2cc)"><g fill="#d9d9d9" fill-opacity="1"><g transform="translate(0.128939, 307.832883)"><g><path d="M 137.75 10.28125 C 114.726562 10.28125 93.828125 6.238281 75.046875 -1.84375 C 56.265625 -9.9375 41.046875 -21.519531 29.390625 -36.59375 C 17.742188 -51.675781 10.828125 -69.359375 8.640625 -89.640625 L 56.75 -98.6875 C 57.84375 -85.257812 62.085938 -73.40625 69.484375 -63.125 C 76.890625 -52.84375 86.625 -44.820312 98.6875 -39.0625 C 110.75 -33.300781 124.179688 -30.421875 138.984375 -30.421875 C 159.273438 -30.421875 175.3125 -35.015625 187.09375 -44.203125 C 198.882812 -53.390625 204.78125 -64.695312 204.78125 -78.125 C 204.78125 -89.363281 200.460938 -98.410156 191.828125 -105.265625 C 183.191406 -112.117188 169.140625 -117.601562 149.671875 -121.71875 L 105.671875 -131.171875 C 76.890625 -137.203125 55.710938 -146.59375 42.140625 -159.34375 C 28.578125 -172.09375 21.796875 -189.019531 21.796875 -210.125 C 21.796875 -228.488281 26.316406 -244.523438 35.359375 -258.234375 C 44.410156 -271.941406 56.953125 -282.632812 72.984375 -290.3125 C 89.023438 -297.988281 107.597656 -301.828125 128.703125 -301.828125 C 147.890625 -301.828125 165.160156 -298.332031 180.515625 -291.34375 C 195.867188 -284.351562 208.546875 -274.617188 218.546875 -262.140625 C 228.554688 -249.671875 234.796875 -235.070312 237.265625 -218.34375 L 189.96875 -207.65625 C 188.050781 -223.832031 181.472656 -236.785156 170.234375 -246.515625 C 158.992188 -256.242188 145.148438 -261.109375 128.703125 -261.109375 C 111.429688 -261.109375 97.722656 -256.789062 87.578125 -248.15625 C 77.441406 -239.519531 72.375 -228.757812 72.375 -215.875 C 72.375 -205.457031 76.210938 -197.023438 83.890625 -190.578125 C 91.566406 -184.140625 103.765625 -179.140625 120.484375 -175.578125 L 164.890625 -166.53125 C 224.929688 -154.75 254.953125 -127.472656 254.953125 -84.703125 C 254.953125 -65.785156 250.015625 -49.195312 240.140625 -34.9375 C 230.273438 -20.6875 216.566406 -9.585938 199.015625 -1.640625 C 181.472656 6.304688 161.050781 10.28125 137.75 10.28125 Z M 137.75 10.28125 "/></g></g></g><g fill="#d9d9d9" fill-opacity="1"><g transform="translate(262.475614, 307.832883)"><g><path d="M 23.84375 0 L 23.84375 -291.546875 L 225.75 -291.546875 L 225.75 -248.78125 L 73.1875 -248.78125 L 73.1875 -169.421875 L 209.296875 -169.421875 L 209.296875 -130.34375 L 73.1875 -130.34375 L 73.1875 -42.765625 L 229.859375 -42.765625 L 229.859375 0 Z M 23.84375 0 "/></g></g></g><g fill="#d9d9d9" fill-opacity="1"><g transform="translate(501.795088, 307.832883)"><g><path d="M 23.84375 0 L 23.84375 -291.546875 L 86.765625 -291.546875 L 221.234375 -62.921875 L 222.046875 -62.921875 L 222.046875 -291.546875 L 271.8125 -291.546875 L 271.8125 0 L 208.890625 0 L 74.015625 -227.8125 L 73.1875 -227.8125 L 73.1875 0 Z M 23.84375 0 "/></g></g></g><g fill="#d9d9d9" fill-opacity="1"><g transform="translate(797.449124, 307.832883)"><g><path d="M 97.859375 0 L 97.859375 -246.71875 L 4.9375 -246.71875 L 4.9375 -291.546875 L 241.375 -291.546875 L 241.375 -246.71875 L 148.859375 -246.71875 L 148.859375 0 Z M 97.859375 0 "/></g></g></g><g fill="#d9d9d9" fill-opacity="1"><g transform="translate(1044.170159, 307.832883)"><g><path d="M 23.84375 0 L 23.84375 -291.546875 L 74.84375 -291.546875 L 74.84375 0 Z M 23.84375 0 "/></g></g></g><g fill="#d9d9d9" fill-opacity="1"><g transform="translate(1142.858499, 307.832883)"><g><path d="M 172.296875 10.28125 C 140.222656 10.28125 112.328125 3.835938 88.609375 -9.046875 C 64.898438 -21.929688 46.460938 -40.09375 33.296875 -63.53125 C 20.140625 -86.96875 13.5625 -114.3125 13.5625 -145.5625 C 13.5625 -177.09375 20.140625 -204.507812 33.296875 -227.8125 C 46.460938 -251.113281 64.898438 -269.273438 88.609375 -282.296875 C 112.328125 -295.316406 140.222656 -301.828125 172.296875 -301.828125 C 204.367188 -301.828125 232.328125 -295.316406 256.171875 -282.296875 C 280.023438 -269.273438 298.53125 -251.113281 311.6875 -227.8125 C 324.851562 -204.507812 331.4375 -177.09375 331.4375 -145.5625 C 331.4375 -114.3125 324.851562 -86.96875 311.6875 -63.53125 C 298.53125 -40.09375 280.023438 -21.929688 256.171875 -9.046875 C 232.328125 3.835938 204.367188 10.28125 172.296875 10.28125 Z M 172.296875 -34.125 C 193.953125 -34.125 212.863281 -38.785156 229.03125 -48.109375 C 245.207031 -57.429688 257.75 -70.453125 266.65625 -87.171875 C 275.570312 -103.898438 280.03125 -123.363281 280.03125 -145.5625 C 280.03125 -168.039062 275.570312 -187.570312 266.65625 -204.15625 C 257.75 -220.75 245.207031 -233.703125 229.03125 -243.015625 C 212.863281 -252.335938 193.953125 -257 172.296875 -257 C 150.640625 -257 131.722656 -252.335938 115.546875 -243.015625 C 99.367188 -233.703125 86.828125 -220.75 77.921875 -204.15625 C 69.015625 -187.570312 64.5625 -168.039062 64.5625 -145.5625 C 64.5625 -123.363281 69.015625 -103.898438 77.921875 -87.171875 C 86.828125 -70.453125 99.367188 -57.429688 115.546875 -48.109375 C 131.722656 -38.785156 150.640625 -34.125 172.296875 -34.125 Z M 172.296875 -34.125 "/></g></g></g></g></g><g clip-path="url(#e62e9a58dc)"><g transform="matrix(1, 0, 0, 1, 49, 1085)"><g clip-path="url(#2f8a211d03)"><g fill="#545454" fill-opacity="1"><g transform="translate(1.11108, 198.99473)"><g><path d="M 53 0 C 43.9375 0 36.800781 -2.195312 31.59375 -6.59375 C 26.394531 -11 23.796875 -18.9375 23.796875 -30.40625 L 23.796875 -85 L 6.59375 -85 L 6.59375 -99.203125 L 23.796875 -99.203125 L 26 -123 L 40.59375 -123 L 40.59375 -99.203125 L 69.796875 -99.203125 L 69.796875 -85 L 40.59375 -85 L 40.59375 -30.40625 C 40.59375 -24.132812 41.859375 -19.898438 44.390625 -17.703125 C 46.929688 -15.503906 51.398438 -14.40625 57.796875 -14.40625 L 68.203125 -14.40625 L 68.203125 0 Z M 53 0 "/></g></g></g><g fill="#545454" fill-opacity="1"><g transform="translate(78.509006, 198.99473)"><g><path d="M 13.796875 0 L 13.796875 -144 L 30.59375 -144 L 30.59375 -82.203125 C 33.925781 -88.335938 38.660156 -93.101562 44.796875 -96.5 C 50.929688 -99.894531 57.597656 -101.59375 64.796875 -101.59375 C 76.265625 -101.59375 85.460938 -98.023438 92.390625 -90.890625 C 99.328125 -83.765625 102.796875 -72.800781 102.796875 -58 L 102.796875 0 L 86.203125 0 L 86.203125 -56.203125 C 86.203125 -76.867188 77.867188 -87.203125 61.203125 -87.203125 C 52.535156 -87.203125 45.265625 -84.097656 39.390625 -77.890625 C 33.523438 -71.691406 30.59375 -62.863281 30.59375 -51.40625 L 30.59375 0 Z M 13.796875 0 "/></g></g></g><g fill="#545454" fill-opacity="1"><g transform="translate(192.90595, 198.99473)"><g><path d="M 24 -121.203125 C 20.664062 -121.203125 17.898438 -122.300781 15.703125 -124.5 C 13.503906 -126.695312 12.40625 -129.460938 12.40625 -132.796875 C 12.40625 -135.992188 13.503906 -138.660156 15.703125 -140.796875 C 17.898438 -142.929688 20.664062 -144 24 -144 C 27.195312 -144 29.925781 -142.929688 32.1875 -140.796875 C 34.457031 -138.660156 35.59375 -135.992188 35.59375 -132.796875 C 35.59375 -129.460938 34.457031 -126.695312 32.1875 -124.5 C 29.925781 -122.300781 27.195312 -121.203125 24 -121.203125 Z M 15.59375 0 L 15.59375 -99.203125 L 32.40625 -99.203125 L 32.40625 0 Z M 15.59375 0 "/></g></g></g><g fill="#545454" fill-opacity="1"><g transform="translate(240.704664, 198.99473)"><g><path d="M 13.796875 0 L 13.796875 -99.203125 L 29 -99.203125 L 30 -81.40625 C 33.195312 -87.664062 37.796875 -92.59375 43.796875 -96.1875 C 49.796875 -99.789062 56.597656 -101.59375 64.203125 -101.59375 C 75.929688 -101.59375 85.296875 -98.023438 92.296875 -90.890625 C 99.296875 -83.765625 102.796875 -72.800781 102.796875 -58 L 102.796875 0 L 86 0 L 86 -56.203125 C 86 -76.867188 77.46875 -87.203125 60.40625 -87.203125 C 51.863281 -87.203125 44.757812 -84.097656 39.09375 -77.890625 C 33.425781 -71.691406 30.59375 -62.863281 30.59375 -51.40625 L 30.59375 0 Z M 13.796875 0 "/></g></g></g><g fill="#545454" fill-opacity="1"><g transform="translate(355.101596, 198.99473)"><g><path d="M 13.796875 0 L 13.796875 -144 L 30.59375 -144 L 30.59375 -57.40625 L 71.203125 -99.203125 L 91.796875 -99.203125 L 47.796875 -54.40625 L 97.40625 0 L 76 0 L 30.59375 -51.40625 L 30.59375 0 Z M 13.796875 0 "/></g></g></g><g fill="#545454" fill-opacity="1"><g transform="translate(455.898944, 198.99473)"><g/></g></g><g fill="#545454" fill-opacity="1"><g transform="translate(508.897533, 198.99473)"><g><path d="M 50 2.40625 C 38.269531 2.40625 28.9375 -1.160156 22 -8.296875 C 15.0625 -15.429688 11.59375 -26.398438 11.59375 -41.203125 L 11.59375 -99.203125 L 28.40625 -99.203125 L 28.40625 -43 C 28.40625 -22.332031 36.867188 -12 53.796875 -12 C 62.460938 -12 69.628906 -15.097656 75.296875 -21.296875 C 80.960938 -27.492188 83.796875 -36.328125 83.796875 -47.796875 L 83.796875 -99.203125 L 100.59375 -99.203125 L 100.59375 0 L 85.40625 0 L 84.203125 -17.796875 C 81.128906 -11.535156 76.5625 -6.601562 70.5 -3 C 64.4375 0.601562 57.601562 2.40625 50 2.40625 Z M 50 2.40625 "/></g></g></g><g fill="#545454" fill-opacity="1"><g transform="translate(623.294442, 198.99473)"><g><path d="M 13.796875 0 L 13.796875 -99.203125 L 29 -99.203125 L 30 -81.40625 C 33.195312 -87.664062 37.796875 -92.59375 43.796875 -96.1875 C 49.796875 -99.789062 56.597656 -101.59375 64.203125 -101.59375 C 75.929688 -101.59375 85.296875 -98.023438 92.296875 -90.890625 C 99.296875 -83.765625 102.796875 -72.800781 102.796875 -58 L 102.796875 0 L 86 0 L 86 -56.203125 C 86 -76.867188 77.46875 -87.203125 60.40625 -87.203125 C 51.863281 -87.203125 44.757812 -84.097656 39.09375 -77.890625 C 33.425781 -71.691406 30.59375 -62.863281 30.59375 -51.40625 L 30.59375 0 Z M 13.796875 0 "/></g></g></g><g fill="#545454" fill-opacity="1"><g transform="translate(737.691398, 198.99473)"><g><path d="M 13.796875 0 L 13.796875 -144 L 30.59375 -144 L 30.59375 0 Z M 13.796875 0 "/></g></g></g><g fill="#545454" fill-opacity="1"><g transform="translate(782.09021, 198.99473)"><g><path d="M 24 -121.203125 C 20.664062 -121.203125 17.898438 -122.300781 15.703125 -124.5 C 13.503906 -126.695312 12.40625 -129.460938 12.40625 -132.796875 C 12.40625 -135.992188 13.503906 -138.660156 15.703125 -140.796875 C 17.898438 -142.929688 20.664062 -144 24 -144 C 27.195312 -144 29.925781 -142.929688 32.1875 -140.796875 C 34.457031 -138.660156 35.59375 -135.992188 35.59375 -132.796875 C 35.59375 -129.460938 34.457031 -126.695312 32.1875 -124.5 C 29.925781 -122.300781 27.195312 -121.203125 24 -121.203125 Z M 15.59375 0 L 15.59375 -99.203125 L 32.40625 -99.203125 L 32.40625 0 Z M 15.59375 0 "/></g></g></g><g fill="#545454" fill-opacity="1"><g transform="translate(829.88897, 198.99473)"><g><path d="M 13.796875 0 L 13.796875 -99.203125 L 29 -99.203125 L 30.203125 -84.796875 C 33.398438 -90.128906 37.664062 -94.257812 43 -97.1875 C 48.332031 -100.125 54.332031 -101.59375 61 -101.59375 C 68.863281 -101.59375 75.628906 -99.992188 81.296875 -96.796875 C 86.960938 -93.597656 91.332031 -88.734375 94.40625 -82.203125 C 97.863281 -88.203125 102.625 -92.929688 108.6875 -96.390625 C 114.757812 -99.859375 121.332031 -101.59375 128.40625 -101.59375 C 140.269531 -101.59375 149.734375 -98.023438 156.796875 -90.890625 C 163.867188 -83.765625 167.40625 -72.800781 167.40625 -58 L 167.40625 0 L 150.796875 0 L 150.796875 -56.203125 C 150.796875 -66.460938 148.726562 -74.191406 144.59375 -79.390625 C 140.46875 -84.597656 134.535156 -87.203125 126.796875 -87.203125 C 118.796875 -87.203125 112.160156 -84.097656 106.890625 -77.890625 C 101.628906 -71.691406 99 -62.863281 99 -51.40625 L 99 0 L 82.203125 0 L 82.203125 -56.203125 C 82.203125 -66.460938 80.132812 -74.191406 76 -79.390625 C 71.863281 -84.597656 65.929688 -87.203125 58.203125 -87.203125 C 50.335938 -87.203125 43.769531 -84.097656 38.5 -77.890625 C 33.226562 -71.691406 30.59375 -62.863281 30.59375 -51.40625 L 30.59375 0 Z M 13.796875 0 "/></g></g></g><g fill="#545454" fill-opacity="1"><g transform="translate(1008.884153, 198.99473)"><g><path d="M 24 -121.203125 C 20.664062 -121.203125 17.898438 -122.300781 15.703125 -124.5 C 13.503906 -126.695312 12.40625 -129.460938 12.40625 -132.796875 C 12.40625 -135.992188 13.503906 -138.660156 15.703125 -140.796875 C 17.898438 -142.929688 20.664062 -144 24 -144 C 27.195312 -144 29.925781 -142.929688 32.1875 -140.796875 C 34.457031 -138.660156 35.59375 -135.992188 35.59375 -132.796875 C 35.59375 -129.460938 34.457031 -126.695312 32.1875 -124.5 C 29.925781 -122.300781 27.195312 -121.203125 24 -121.203125 Z M 15.59375 0 L 15.59375 -99.203125 L 32.40625 -99.203125 L 32.40625 0 Z M 15.59375 0 "/></g></g></g><g fill="#545454" fill-opacity="1"><g transform="translate(1056.682821, 198.99473)"><g><path d="M 53 0 C 43.9375 0 36.800781 -2.195312 31.59375 -6.59375 C 26.394531 -11 23.796875 -18.9375 23.796875 -30.40625 L 23.796875 -85 L 6.59375 -85 L 6.59375 -99.203125 L 23.796875 -99.203125 L 26 -123 L 40.59375 -123 L 40.59375 -99.203125 L 69.796875 -99.203125 L 69.796875 -85 L 40.59375 -85 L 40.59375 -30.40625 C 40.59375 -24.132812 41.859375 -19.898438 44.390625 -17.703125 C 46.929688 -15.503906 51.398438 -14.40625 57.796875 -14.40625 L 68.203125 -14.40625 L 68.203125 0 Z M 53 0 "/></g></g></g><g fill="#545454" fill-opacity="1"><g transform="translate(1134.080759, 198.99473)"><g><path d="M 58.40625 2.40625 C 48.9375 2.40625 40.535156 0.238281 33.203125 -4.09375 C 25.867188 -8.425781 20.097656 -14.457031 15.890625 -22.1875 C 11.691406 -29.925781 9.59375 -39.0625 9.59375 -49.59375 C 9.59375 -60 11.660156 -69.097656 15.796875 -76.890625 C 19.929688 -84.691406 25.695312 -90.757812 33.09375 -95.09375 C 40.5 -99.425781 49.066406 -101.59375 58.796875 -101.59375 C 68.398438 -101.59375 76.703125 -99.425781 83.703125 -95.09375 C 90.703125 -90.757812 96.066406 -85.0625 99.796875 -78 C 103.535156 -70.9375 105.40625 -63.335938 105.40625 -55.203125 C 105.40625 -53.734375 105.367188 -52.265625 105.296875 -50.796875 C 105.234375 -49.328125 105.203125 -47.660156 105.203125 -45.796875 L 26.203125 -45.796875 C 26.597656 -38.203125 28.363281 -31.90625 31.5 -26.90625 C 34.632812 -21.90625 38.566406 -18.132812 43.296875 -15.59375 C 48.035156 -13.0625 53.070312 -11.796875 58.40625 -11.796875 C 65.332031 -11.796875 71.128906 -13.394531 75.796875 -16.59375 C 80.460938 -19.800781 83.863281 -24.132812 86 -29.59375 L 102.59375 -29.59375 C 99.925781 -20.394531 94.828125 -12.757812 87.296875 -6.6875 C 79.765625 -0.625 70.132812 2.40625 58.40625 2.40625 Z M 58.40625 -87.40625 C 50.40625 -87.40625 43.300781 -84.96875 37.09375 -80.09375 C 30.894531 -75.226562 27.332031 -68.128906 26.40625 -58.796875 L 88.796875 -58.796875 C 88.398438 -67.734375 85.332031 -74.734375 79.59375 -79.796875 C 73.863281 -84.867188 66.800781 -87.40625 58.40625 -87.40625 Z M 58.40625 -87.40625 "/></g></g></g><g fill="#545454" fill-opacity="1"><g transform="translate(1247.877769, 198.99473)"><g><path d="M 58.796875 2.40625 C 48.929688 2.40625 40.296875 0.140625 32.890625 -4.390625 C 25.492188 -8.929688 19.757812 -15.132812 15.6875 -23 C 11.625 -30.863281 9.59375 -39.796875 9.59375 -49.796875 C 9.59375 -59.796875 11.660156 -68.695312 15.796875 -76.5 C 19.929688 -84.300781 25.664062 -90.429688 33 -94.890625 C 40.332031 -99.359375 49 -101.59375 59 -101.59375 C 67.132812 -101.59375 74.332031 -99.925781 80.59375 -96.59375 C 86.863281 -93.257812 91.734375 -88.59375 95.203125 -82.59375 L 95.203125 -144 L 112 -144 L 112 0 L 96.796875 0 L 95.203125 -16.40625 C 92.003906 -11.601562 87.40625 -7.265625 81.40625 -3.390625 C 75.40625 0.472656 67.867188 2.40625 58.796875 2.40625 Z M 60.59375 -12.203125 C 67.257812 -12.203125 73.160156 -13.765625 78.296875 -16.890625 C 83.429688 -20.023438 87.429688 -24.394531 90.296875 -30 C 93.160156 -35.601562 94.59375 -42.132812 94.59375 -49.59375 C 94.59375 -57.0625 93.160156 -63.59375 90.296875 -69.1875 C 87.429688 -74.789062 83.429688 -79.160156 78.296875 -82.296875 C 73.160156 -85.429688 67.257812 -87 60.59375 -87 C 54.0625 -87 48.226562 -85.429688 43.09375 -82.296875 C 37.96875 -79.160156 33.96875 -74.789062 31.09375 -69.1875 C 28.226562 -63.59375 26.796875 -57.0625 26.796875 -49.59375 C 26.796875 -42.132812 28.226562 -35.601562 31.09375 -30 C 33.96875 -24.394531 37.96875 -20.023438 43.09375 -16.890625 C 48.226562 -13.765625 54.0625 -12.203125 60.59375 -12.203125 Z M 60.59375 -12.203125 "/></g></g></g></g></g></g></g></g></svg>