<svg width="830" height="831" viewBox="0 0 830 831" fill="none" xmlns="http://www.w3.org/2000/svg">
<path d="M829 830.155H1M497.8 291.217H332.2M497.8 539.958H332.2M187.341 249.76H186.969M187.383 415.587H186.969M187.383 581.414H186.969M642.741 249.76H642.369M642.783 415.587H642.369M642.783 581.414H642.369M787.6 228.41C787.6 182.89 787.6 160.172 776.174 140.936C764.747 121.7 743.675 109.18 701.571 83.9329L647.999 51.8454C581.883 12.2127 548.805 -7.60368 523.302 4.66753C497.8 16.9387 497.8 52.633 497.8 124.022V830.155H787.6V228.41ZM42.4 228.41C42.4 182.89 42.4 160.172 53.8264 140.936C65.2528 121.7 86.3254 109.18 128.429 83.9329L182.001 51.8454C248.158 12.1712 281.195 -7.6866 306.698 4.62607C332.2 16.9387 332.2 52.633 332.2 124.022V830.155H42.4V228.41Z" stroke="white" stroke-opacity="0.5" stroke-linecap="round" stroke-linejoin="round"/>
</svg>
